<svg xmlns="http://www.w3.org/2000/svg" width="115" height="39" viewBox="0 0 115 39" fill="none">
  <g clip-path="url(#clip0_180_1665)">
    <path d="M104.773 0.949342H9.20227C8.85389 0.949342 8.50972 0.949342 8.16222 0.951242C7.87138 0.953142 7.58285 0.958662 7.28924 0.963307C6.65133 0.970814 6.01491 1.02693 5.38553 1.13118C4.75703 1.2377 4.14822 1.43851 3.5797 1.72683C3.01186 2.01759 2.49301 2.3954 2.04198 2.84656C1.58857 3.29645 1.21063 3.81646 0.92267 4.38659C0.633917 4.95559 0.433696 5.56533 0.32892 6.19475C0.223147 6.82337 0.166231 7.45924 0.15868 8.09663C0.149864 8.38794 0.148933 8.68013 0.144287 8.97144V30.93C0.148933 31.225 0.149864 31.5107 0.15868 31.8058C0.166233 32.4432 0.22315 33.079 0.32892 33.7076C0.433406 34.3374 0.63364 34.9475 0.92267 35.5167C1.2105 36.085 1.5885 36.6029 2.04198 37.0503C2.4913 37.5035 3.01048 37.8815 3.5797 38.17C4.14822 38.4592 4.75696 38.6612 5.38553 38.7693C6.01502 38.8728 6.65137 38.9289 7.28924 38.9373C7.58285 38.9437 7.87138 38.9475 8.16222 38.9475C8.50965 38.9494 8.85389 38.9494 9.20227 38.9494H104.773C105.114 38.9494 105.461 38.9494 105.802 38.9475C106.092 38.9475 106.388 38.9437 106.678 38.9373C107.314 38.9294 107.95 38.8732 108.578 38.7693C109.208 38.6604 109.82 38.4584 110.39 38.17C110.959 37.8814 111.478 37.5033 111.927 37.0503C112.379 36.6012 112.758 36.0836 113.05 35.5167C113.336 34.9471 113.535 34.337 113.637 33.7076C113.744 33.079 113.802 32.4432 113.814 31.8058C113.818 31.5107 113.818 31.225 113.818 30.93C113.825 30.5849 113.825 30.2417 113.825 29.8909V10.0086C113.825 9.66073 113.825 9.31568 113.818 8.97144C113.818 8.68013 113.818 8.38794 113.814 8.09663C113.802 7.45914 113.744 6.82342 113.637 6.19471C113.534 5.56566 113.336 4.95597 113.05 4.38656C112.463 3.24378 111.533 2.31357 110.39 1.72675C109.82 1.43913 109.208 1.23837 108.578 1.1311C107.95 1.02639 107.314 0.97025 106.678 0.963174C106.388 0.958538 106.092 0.952971 105.802 0.951119C105.461 0.949219 105.114 0.949342 104.773 0.949342Z" fill="#A6A6A6"/>
    <path d="M8.16685 38.1187C7.87744 38.1187 7.59495 38.115 7.30778 38.1086C6.71287 38.1008 6.11936 38.0491 5.5321 37.9536C4.98451 37.8593 4.45405 37.6839 3.9582 37.4331C3.4669 37.1844 3.01879 36.8584 2.63105 36.4674C2.23769 36.081 1.9102 35.6328 1.66156 35.1407C1.41018 34.6453 1.23621 34.1144 1.14571 33.5663C1.04798 32.9775 0.995103 32.382 0.987537 31.7851C0.981518 31.5847 0.973633 30.9177 0.973633 30.9177V8.97213C0.973633 8.97213 0.982027 8.31528 0.987584 8.12229C0.994831 7.52635 1.0474 6.93182 1.14484 6.34384C1.23551 5.79429 1.40962 5.26181 1.66113 4.76485C1.90885 4.27305 2.23452 3.82456 2.62551 3.43679C3.01606 3.04534 3.4656 2.71757 3.95773 2.46545C4.45244 2.21549 4.98191 2.04129 5.52839 1.9487C6.11758 1.85234 6.71315 1.80024 7.31015 1.79285L8.16732 1.78125H105.797L106.665 1.79331C107.256 1.80034 107.846 1.85198 108.43 1.94777C108.982 2.04152 109.517 2.21693 110.018 2.46823C111.004 2.97634 111.806 3.7802 112.312 4.76716C112.559 5.26069 112.731 5.78883 112.82 6.33364C112.919 6.92644 112.974 7.52565 112.985 8.1265C112.988 8.39555 112.988 8.68449 112.988 8.97213C112.995 9.32838 112.995 9.66746 112.995 10.0093V29.8915C112.995 30.2367 112.995 30.5734 112.988 30.913C112.988 31.2219 112.988 31.5049 112.985 31.7962C112.974 32.3863 112.919 32.9748 112.822 33.557C112.734 34.1091 112.561 34.6441 112.309 35.1435C112.059 35.6304 111.733 36.0746 111.345 36.46C110.956 36.8531 110.507 37.181 110.015 37.4314C109.516 37.6841 108.982 37.8601 108.43 37.9536C107.843 38.0495 107.249 38.1014 106.655 38.1086C106.377 38.115 106.085 38.1187 105.802 38.1187L104.773 38.1206L8.16685 38.1187Z" fill="black"/>
    <path d="M23.6746 20.2339C23.6848 19.441 23.8955 18.6636 24.2869 17.9739C24.6783 17.2842 25.2378 16.7048 25.9133 16.2895C25.4842 15.6766 24.9181 15.1722 24.2598 14.8163C23.6017 14.4606 22.8696 14.2631 22.1217 14.2397C20.5265 14.0722 18.9799 15.1943 18.167 15.1943C17.3384 15.1943 16.0867 14.2563 14.7389 14.2841C13.8671 14.3122 13.0175 14.5658 12.2728 15.0199C11.5282 15.474 10.9138 16.1134 10.4897 16.8755C8.65237 20.0565 10.0228 24.7315 11.7828 27.3028C12.6633 28.5619 13.6925 29.9683 15.039 29.9184C16.3567 29.8638 16.8489 29.0782 18.4395 29.0782C20.0152 29.0782 20.477 29.9184 21.8509 29.8867C23.2649 29.8638 24.1558 28.6221 25.0054 27.3511C25.6381 26.4539 26.1249 25.4624 26.4479 24.4132C25.6264 24.0658 24.9254 23.4841 24.4322 22.741C23.9391 21.9978 23.6756 21.1259 23.6746 20.2339Z" fill="white"/>
    <path d="M21.0796 12.5504C21.8505 11.625 22.2304 10.4354 22.1384 9.23438C20.9605 9.35808 19.8726 9.92102 19.0912 10.811C18.7092 11.2458 18.4166 11.7516 18.2302 12.2995C18.0437 12.8474 17.9671 13.4267 18.0047 14.0043C18.5938 14.0104 19.1766 13.8827 19.7092 13.6308C20.2419 13.379 20.7105 13.0096 21.0796 12.5504Z" fill="white"/>
    <path d="M40.3313 26.7315H35.8347L34.7548 29.9201H32.8501L37.1094 18.123H39.0882L43.3474 29.9201H41.4103L40.3313 26.7315ZM36.3004 25.2601H39.8648L38.1076 20.0853H38.0585L36.3004 25.2601Z" fill="white"/>
    <path d="M52.546 25.6211C52.546 28.2939 51.1155 30.0112 48.9567 30.0112C48.4097 30.0397 47.8659 29.9138 47.3873 29.6476C46.9087 29.3815 46.5147 28.986 46.2505 28.5064H46.2096V32.7665H44.4441V21.3201H46.153V22.7507H46.1855C46.4619 22.2733 46.8625 21.8798 47.3448 21.6121C47.827 21.3444 48.3729 21.2123 48.9242 21.2301C51.1071 21.2302 52.546 22.9557 52.546 25.6211ZM50.7314 25.6211C50.7314 23.8797 49.8315 22.7349 48.4585 22.7349C47.1095 22.7349 46.2022 23.9039 46.2022 25.6211C46.2022 27.3541 47.1095 28.5147 48.4585 28.5147C49.8315 28.5147 50.7314 27.3782 50.7314 25.6211Z" fill="white"/>
    <path d="M62.0126 25.6211C62.0126 28.2939 60.582 30.0112 58.4232 30.0112C57.8763 30.0397 57.3324 29.9138 56.8538 29.6476C56.3752 29.3815 55.9812 28.986 55.717 28.5064H55.6762V32.7665H53.9106V21.3201H55.6196V22.7506H55.652C55.9284 22.2733 56.3291 21.8798 56.8113 21.6121C57.2935 21.3444 57.8394 21.2123 58.3907 21.2301C60.5737 21.2301 62.0126 22.9557 62.0126 25.6211ZM60.1979 25.6211C60.1979 23.8797 59.298 22.7349 57.925 22.7349C56.5761 22.7349 55.6688 23.9039 55.6688 25.6211C55.6688 27.3541 56.5761 28.5147 57.925 28.5147C59.298 28.5147 60.1979 27.3782 60.1979 25.6211Z" fill="white"/>
    <path d="M68.2694 26.6326C68.3997 27.8025 69.5363 28.5706 71.0896 28.5706C72.5777 28.5706 73.6485 27.8025 73.6485 26.7476C73.6485 25.8319 73.0025 25.2837 71.4736 24.9079L69.9448 24.5396C67.7784 24.0164 66.7728 23.0033 66.7728 21.3593C66.7728 19.3238 68.5463 17.9258 71.0651 17.9258C73.5582 17.9258 75.2669 19.3238 75.3245 21.3593H73.5426C73.4354 20.182 72.4623 19.4714 71.04 19.4714C69.6184 19.4714 68.6447 20.1904 68.6447 21.2369C68.6447 22.0709 69.2662 22.5616 70.7869 22.9374L72.0871 23.2565C74.5075 23.8289 75.5132 24.8012 75.5132 26.5267C75.5132 28.7339 73.755 30.1162 70.9586 30.1162C68.3427 30.1162 66.576 28.7663 66.4619 26.6325L68.2694 26.6326Z" fill="white"/>
    <path d="M79.3235 19.2832V21.3186H80.9588V22.7168H79.3235V27.4584C79.3235 28.195 79.6505 28.5383 80.3698 28.5383C80.5639 28.5349 80.758 28.5213 80.9507 28.4975V29.8872C80.627 29.9476 80.2986 29.9749 79.9701 29.9688C78.2283 29.9688 77.5497 29.3148 77.5497 27.6467V22.7168H76.2991V21.3186H77.5497V19.2832H79.3235Z" fill="white"/>
    <path d="M81.906 25.6197C81.906 22.9135 83.5 21.2129 85.9849 21.2129C88.4787 21.2129 90.0652 22.9134 90.0652 25.6197C90.0652 28.3333 88.4875 30.0264 85.9849 30.0264C83.4837 30.0264 81.906 28.3333 81.906 25.6197ZM88.2663 25.6197C88.2663 23.7632 87.416 22.6676 85.9849 22.6676C84.5545 22.6676 83.7049 23.7716 83.7049 25.6197C83.7049 27.4834 84.5545 28.5708 85.9849 28.5708C87.416 28.5708 88.2663 27.4834 88.2663 25.6197Z" fill="white"/>
    <path d="M91.5208 21.3201H93.205V22.784H93.2457C93.3597 22.3268 93.6277 21.9227 94.0043 21.6397C94.3809 21.3567 94.8437 21.212 95.3146 21.23C95.5182 21.2293 95.7211 21.2514 95.9192 21.2959V22.9473C95.6627 22.8688 95.3947 22.8327 95.126 22.8406C94.8695 22.8302 94.6144 22.8754 94.3769 22.9731C94.1394 23.0709 93.9256 23.2188 93.7512 23.4068C93.5761 23.5948 93.4445 23.8184 93.3644 24.0622C93.2837 24.3061 93.2572 24.5644 93.2864 24.8194V29.921H91.5208V21.3201Z" fill="white"/>
    <path d="M104.059 27.3935C103.822 28.9548 102.301 30.0263 100.356 30.0263C97.8538 30.0263 96.3005 28.3499 96.3005 25.6605C96.3005 22.9626 97.8619 21.2129 100.282 21.2129C102.661 21.2129 104.158 22.8475 104.158 25.4554V26.0603H98.0831V26.1669C98.0546 26.4835 98.0947 26.8024 98.1992 27.1024C98.3037 27.4025 98.4713 27.6768 98.6898 27.9073C98.909 28.1376 99.1743 28.3189 99.4681 28.4389C99.7626 28.5589 100.079 28.6149 100.396 28.6032C100.814 28.6423 101.232 28.5457 101.591 28.3277C101.948 28.1098 102.227 27.7821 102.383 27.3935H104.059ZM98.0913 24.8264H102.391C102.407 24.5418 102.364 24.257 102.265 23.9898C102.165 23.7227 102.011 23.479 101.813 23.274C101.615 23.069 101.377 22.9071 101.114 22.7986C100.85 22.6901 100.567 22.6373 100.282 22.6435C99.994 22.6417 99.709 22.6969 99.443 22.806C99.177 22.915 98.9354 23.0756 98.7319 23.2785C98.5276 23.4815 98.3668 23.7227 98.2569 23.9885C98.1469 24.2541 98.0906 24.5389 98.0913 24.8264Z" fill="white"/>
    <path d="M35.0455 11.6407H35.8035C35.934 11.657 36.0664 11.646 36.1924 11.6086C36.3184 11.571 36.4354 11.5079 36.5358 11.423C36.6362 11.3381 36.7179 11.2333 36.7758 11.1153C36.8337 10.9972 36.8666 10.8685 36.8722 10.7371C36.8722 10.2143 36.4789 9.87665 35.8118 9.87665C35.6781 9.85799 35.5421 9.86627 35.4117 9.90101C35.2812 9.93583 35.1591 9.99635 35.0525 10.0791C34.9459 10.1619 34.8569 10.2652 34.7908 10.3829C34.7248 10.5006 34.683 10.6303 34.6679 10.7645H33.8357C33.8501 10.521 33.9143 10.2831 34.0246 10.0655C34.1349 9.84795 34.2888 9.65544 34.4767 9.49991C34.6646 9.34438 34.8824 9.22923 35.1168 9.16158C35.3511 9.09385 35.5968 9.07519 35.8387 9.10661C36.9548 9.10661 37.7406 9.73144 37.7406 10.6309C37.7432 10.9322 37.6424 11.2253 37.455 11.4613C37.2676 11.6972 37.0049 11.8617 36.7108 11.9274V11.9942C37.0594 12.0097 37.3878 12.1626 37.6241 12.4194C37.8604 12.6762 37.9853 13.0162 37.9716 13.3649C37.9458 13.6156 37.8702 13.8586 37.7493 14.0797C37.6283 14.3009 37.4645 14.4956 37.2673 14.6526C37.0701 14.8095 36.8436 14.9255 36.601 14.9938C36.3584 15.0621 36.1046 15.0812 35.8545 15.0501C35.6039 15.0844 35.349 15.0677 35.1049 15.0012C34.8609 14.9347 34.6327 14.8198 34.434 14.6633C34.2353 14.5068 34.0702 14.3119 33.9484 14.0901C33.8267 13.8684 33.7508 13.6245 33.7253 13.3728H34.5705C34.6215 13.9151 35.1197 14.2648 35.8545 14.2648C36.5893 14.2648 37.0689 13.8719 37.0689 13.3181C37.0689 12.7564 36.6171 12.4103 35.8276 12.4103H35.0455V11.6407Z" fill="white"/>
    <path d="M38.9319 13.7013C38.9319 12.9313 39.5062 12.4874 40.523 12.4243L41.6817 12.3575V11.9883C41.6817 11.5365 41.3839 11.2813 40.806 11.2813C40.3346 11.2813 40.009 11.4544 39.9144 11.7568H39.097C39.1834 11.022 39.8754 10.5508 40.8458 10.5508C41.9183 10.5508 42.5232 11.0847 42.5232 11.9883V14.9111H41.7096V14.3099H41.6428C41.5072 14.5256 41.3168 14.7014 41.091 14.8194C40.8653 14.9374 40.6123 14.9933 40.3578 14.9816C40.1783 15.0002 39.9968 14.9811 39.825 14.9253C39.6533 14.8695 39.4952 14.7784 39.3608 14.6578C39.2265 14.5372 39.1189 14.3898 39.045 14.225C38.9712 14.0603 38.9326 13.8819 38.9319 13.7013ZM41.6817 13.3358V12.9782L40.6371 13.0449C40.0479 13.0844 39.7808 13.2847 39.7808 13.6619C39.7808 14.0469 40.1147 14.271 40.574 14.271C40.7086 14.2846 40.8445 14.271 40.9737 14.231C41.1029 14.191 41.2227 14.1255 41.3261 14.0382C41.4294 13.951 41.5142 13.8438 41.5753 13.7232C41.6364 13.6025 41.6726 13.4707 41.6817 13.3358Z" fill="white"/>
    <path d="M44.7637 11.3454V14.9125H43.9194V10.6348H46.7361V11.3454H44.7637Z" fill="white"/>
    <path d="M51.8525 12.771C51.8525 14.1301 51.1651 14.9822 50.0852 14.9822C49.8201 15.0003 49.5554 14.9423 49.3222 14.815C49.0889 14.6877 48.8969 14.4964 48.7687 14.2637H48.7019V16.3339H47.8577V10.6339H48.6704V11.3409H48.7335C48.8639 11.1 49.0585 10.8999 49.2955 10.7626C49.5326 10.6253 49.803 10.5562 50.0768 10.5629C51.165 10.5629 51.8525 11.4113 51.8525 12.771ZM50.9842 12.771C50.9842 11.8673 50.5565 11.3213 49.8412 11.3213C49.1306 11.3213 48.6861 11.8789 48.6861 12.7746C48.6861 13.6662 49.1305 14.2242 49.8375 14.2242C50.5565 14.2242 50.9842 13.6783 50.9842 12.771Z" fill="white"/>
    <path d="M52.9769 16.4447V15.7178C53.0682 15.7294 53.1603 15.7347 53.2524 15.7336C53.4322 15.7469 53.6107 15.6933 53.7535 15.5832C53.8963 15.473 53.9934 15.3139 54.0261 15.1365L54.0892 14.9283L52.5408 10.6348H53.4602L54.5327 14.0326H54.5995L55.6682 10.6348H56.5635L54.9687 15.0892C54.6032 16.1302 54.1987 16.4642 53.3266 16.4642C53.2561 16.4642 53.0557 16.4563 52.9769 16.4447Z" fill="white"/>
    <path d="M57.2212 13.6975H58.0617C58.1443 14.0747 58.4978 14.2713 58.9923 14.2713C59.5545 14.2713 59.8996 14.0237 59.8996 13.6386C59.8996 13.2263 59.5897 13.0296 58.9923 13.0296H58.3521V12.3737H58.9811C59.4914 12.3737 59.7511 12.1775 59.7511 11.8198C59.7511 11.5058 59.4997 11.266 58.9811 11.266C58.5089 11.266 58.1638 11.4664 58.109 11.8041H57.2954C57.3562 11.4161 57.5669 11.0674 57.8822 10.8331C58.1974 10.5988 58.592 10.4975 58.9811 10.5511C59.9979 10.5511 60.5796 11.0109 60.5796 11.7336C60.5843 11.9348 60.5199 12.1316 60.3969 12.291C60.274 12.4504 60.1 12.5628 59.9042 12.6093V12.6762C60.1373 12.7062 60.3514 12.8208 60.5057 12.9983C60.6599 13.1757 60.7437 13.4036 60.741 13.6386C60.741 14.4518 60.0489 14.9899 58.9923 14.9899C58.058 14.9899 57.2992 14.5617 57.2212 13.6975Z" fill="white"/>
    <path d="M61.957 14.9125V10.6348H62.7938V13.5771H62.8606L64.8321 10.6348H65.6689V14.9125H64.8321V11.9545H64.769L62.7938 14.9125H61.957Z" fill="white"/>
    <path d="M70.2787 11.3454H68.9317V14.9125H68.0862V11.3454H66.7393V10.6348H70.2787V11.3454Z" fill="white"/>
    <path d="M74.8265 13.7562C74.7111 14.1471 74.4628 14.4853 74.1235 14.7114C73.7849 14.9377 73.377 15.0376 72.9719 14.9938C72.6903 15.0013 72.4101 14.9472 72.1509 14.8356C71.8923 14.7239 71.6609 14.5573 71.473 14.3473C71.285 14.1372 71.1445 13.8887 71.0624 13.619C70.9796 13.3494 70.9573 13.0651 70.9959 12.7858C70.9579 12.5057 70.981 12.2207 71.0638 11.9503C71.1459 11.6799 71.285 11.4302 71.4723 11.2183C71.6589 11.0064 71.8896 10.8371 72.1475 10.722C72.4053 10.6068 72.6856 10.5485 72.9679 10.5509C74.1581 10.5509 74.8774 11.3641 74.8774 12.7074V13.002H71.857V13.0493C71.8435 13.2063 71.8631 13.3644 71.914 13.5134C71.9656 13.6624 72.0477 13.7989 72.1549 13.9143C72.2621 14.0298 72.3924 14.1214 72.5376 14.1835C72.6822 14.2456 72.8383 14.2767 72.9957 14.2748C73.1979 14.2989 73.4021 14.2625 73.5833 14.1701C73.7645 14.0778 73.9138 13.9337 74.0129 13.7562L74.8265 13.7562ZM71.8564 12.3776H74.0163C74.0271 12.2341 74.0074 12.09 73.9593 11.9544C73.9111 11.8189 73.8351 11.695 73.736 11.5906C73.6369 11.4863 73.5168 11.4037 73.3838 11.3484C73.2515 11.2931 73.1083 11.2662 72.9645 11.2694C72.8186 11.2674 72.6734 11.2948 72.5383 11.3497C72.4026 11.4048 72.2798 11.4863 72.1766 11.5896C72.0735 11.6929 71.9921 11.8158 71.9371 11.9512C71.8821 12.0866 71.8536 12.2315 71.8564 12.3776Z" fill="white"/>
    <path d="M78.4053 10.6348H80.3345C81.1711 10.6348 81.6617 11.0587 81.6617 11.7225C81.6631 11.9331 81.5918 12.1378 81.4609 12.3023C81.3292 12.4668 81.1447 12.5811 80.9391 12.6261V12.6929C81.1888 12.7087 81.4236 12.8198 81.5932 13.0033C81.7635 13.1869 81.8572 13.4288 81.8538 13.6791C81.8538 14.4255 81.2926 14.9125 80.3535 14.9125H78.4053V10.6348ZM79.2426 11.2827V12.3904H80.0793C80.5896 12.3904 80.8332 12.1943 80.8332 11.8324C80.8332 11.4989 80.6208 11.2827 80.1729 11.2827H79.2426ZM79.2426 13.0111V14.2645H80.2435C80.7423 14.2645 81.0096 14.0442 81.0096 13.6397C81.0096 13.2116 80.707 13.0111 80.1377 13.0111H79.2426Z" fill="white"/>
  </g>
  <defs>
    <clipPath id="clip0_180_1665">
      <rect width="114" height="38" fill="white" transform="translate(0.144287 0.949219)"/>
    </clipPath>
  </defs>
</svg>