<svg xmlns="http://www.w3.org/2000/svg" width="25" height="25" viewBox="0 0 25 25" fill="none">
  <path fill-rule="evenodd" clip-rule="evenodd" d="M10.334 4.17749C9.91977 4.17749 9.58398 4.51328 9.58398 4.92749V5.67749H15.584V4.92749C15.584 4.51328 15.2482 4.17749 14.834 4.17749H10.334ZM8.08398 4.92749V5.67749H4.33398C3.91977 5.67749 3.58398 6.01328 3.58398 6.42749C3.58398 6.8417 3.91977 7.17749 4.33398 7.17749H4.88403L6.20486 20.6456C6.31784 21.7977 7.28653 22.676 8.44412 22.676H16.7239C17.8815 22.676 18.8501 21.7977 18.9631 20.6456L20.284 7.17749H20.834C21.2482 7.17749 21.584 6.8417 21.584 6.42749C21.584 6.01328 21.2482 5.67749 20.834 5.67749H17.084V4.92749C17.084 3.68485 16.0766 2.67749 14.834 2.67749H10.334C9.09134 2.67749 8.08398 3.68485 8.08398 4.92749ZM11.584 10.4275C11.584 10.0133 11.2482 9.67749 10.834 9.67749C10.4198 9.67749 10.084 10.0133 10.084 10.4275V17.9275C10.084 18.3417 10.4198 18.6775 10.834 18.6775C11.2482 18.6775 11.584 18.3417 11.584 17.9275V10.4275ZM15.084 10.4275C15.084 10.0133 14.7482 9.67749 14.334 9.67749C13.9198 9.67749 13.584 10.0133 13.584 10.4275V17.9275C13.584 18.3417 13.9198 18.6775 14.334 18.6775C14.7482 18.6775 15.084 18.3417 15.084 17.9275V10.4275Z" fill="#1F2026"/>
</svg>