<svg xmlns="http://www.w3.org/2000/svg" width="28" height="29" viewBox="0 0 28 29" fill="none">
  <path fill-rule="evenodd" clip-rule="evenodd" d="M14 5.30005C12.2402 5.30005 11 6.68784 11 8.30005H17C17 6.68784 15.7598 5.30005 14 5.30005ZM9.5 12.3V9.80005H7.5V15.05C7.5 15.4642 7.16421 15.8 6.75 15.8C6.33578 15.8 6 15.4642 6 15.05V9.05005V8.30005H6.75H9.5C9.5 5.91226 11.3598 3.80005 14 3.80005C16.6402 3.80005 18.5 5.91226 18.5 8.30005H21.25H22V9.05005V22.55C22 23.7926 20.9926 24.8 19.75 24.8H15.25C14.8358 24.8 14.5 24.4642 14.5 24.05C14.5 23.6358 14.8358 23.3 15.25 23.3H19.75C20.1642 23.3 20.5 22.9642 20.5 22.55V9.80005H18.5V12.3H17V9.80005H11V12.3H9.5ZM14.2738 18.8323C14.5667 18.5395 14.5667 18.0646 14.2738 17.7717C13.9809 17.4788 13.506 17.4788 13.2131 17.7717L7.99548 22.9893L5.78034 20.7742C5.48744 20.4813 5.01257 20.4813 4.71967 20.7741C4.42678 21.067 4.42677 21.5419 4.71966 21.8348L7.46513 24.5803C7.60579 24.721 7.79655 24.8 7.99547 24.8C8.19438 24.8 8.38515 24.721 8.5258 24.5803L14.2738 18.8323Z" fill="#1F2026"/>
</svg>