<svg xmlns="http://www.w3.org/2000/svg" width="25" height="25" viewBox="0 0 25 25" fill="none">
  <path d="M8.10449 10.0596V8.05957H6.10449V12.5596C6.10449 12.8357 5.88063 13.0596 5.60449 13.0596C5.32835 13.0596 5.10449 12.8357 5.10449 12.5596V7.05957H8.10449C8.10449 4.65585 10.0568 3.05957 12.1045 3.05957C14.162 3.05957 16.1045 4.76513 16.1045 7.05957H19.1045V19.5596C19.1045 20.388 18.4329 21.0596 17.6045 21.0596H12.6045C12.3284 21.0596 12.1045 20.8357 12.1045 20.5596C12.1045 20.2835 12.3284 20.0596 12.6045 20.0596H17.6045C17.8806 20.0596 18.1045 19.8357 18.1045 19.5596V8.05957H16.1045V10.0596H15.1045V8.05957H9.10449V10.0596H8.10449ZM12.1045 4.05957C10.5522 4.05957 9.10449 5.26329 9.10449 7.05957H15.1045C15.1045 5.35401 13.647 4.05957 12.1045 4.05957Z" fill="#8B8E99"/>
  <path d="M7.60449 14.0596C7.88063 14.0596 8.10449 14.2835 8.10449 14.5596V17.0596H10.6045C10.8806 17.0596 11.1045 17.2835 11.1045 17.5596C11.1045 17.8357 10.8806 18.0596 10.6045 18.0596H8.10449V20.5596C8.10449 20.8357 7.88063 21.0596 7.60449 21.0596C7.32835 21.0596 7.10449 20.8357 7.10449 20.5596V18.0596H4.60449C4.32835 18.0596 4.10449 17.8357 4.10449 17.5596C4.10449 17.2835 4.32835 17.0596 4.60449 17.0596H7.10449V14.5596C7.10449 14.2835 7.32835 14.0596 7.60449 14.0596Z" fill="#8B8E99"/>
</svg>