<svg xmlns="http://www.w3.org/2000/svg" width="33" height="33" viewBox="0 0 33 33" fill="none">
  <g clip-path="url(#clip0_1_7199)">
    <path d="M32.1045 28.1942C32.1045 30.6831 30.1489 32.6387 27.66 32.6387H4.54894C2.06005 32.6387 0.104492 30.6831 0.104492 28.1942V5.08312C0.104492 2.59423 2.06005 0.638672 4.54894 0.638672H27.66C30.1489 0.638672 32.1045 2.59423 32.1045 5.08312V28.1942Z" fill="#3B5998"/>
    <path d="M25.3489 17.528H22.3267V29.0836H17.8822V17.528H15.2156V13.9724H17.8822V11.8391C17.8822 8.728 19.2156 6.86133 22.86 6.86133H25.8822V10.4169H23.8378C22.4156 10.4169 22.3267 10.9502 22.3267 11.928V13.9724H25.8822L25.3489 17.528Z" fill="white"/>
  </g>
  <defs>
    <clipPath id="clip0_1_7199">
      <rect width="32" height="32" fill="white" transform="translate(0.104492 0.638672)"/>
    </clipPath>
  </defs>
</svg>