<svg xmlns="http://www.w3.org/2000/svg" width="24" height="25" viewBox="0 0 24 25" fill="none">
  <path fill-rule="evenodd" clip-rule="evenodd" d="M7.2 7.70234C7.2 6.54254 8.1402 5.60234 9.3 5.60234C10.4375 5.60234 11.3638 6.50677 11.399 7.63577C11.3966 7.65763 11.3953 7.67984 11.3953 7.70234C11.3953 7.72484 11.3966 7.74706 11.399 7.76892C11.3638 8.89792 10.4375 9.80234 9.3 9.80234C8.1402 9.80234 7.2 8.86214 7.2 7.70234ZM9.3 4.40234C10.9176 4.40234 12.2634 5.56627 12.5456 7.10234H22.2C22.5313 7.10234 22.8 7.37098 22.8 7.70234C22.8 8.03371 22.5313 8.30234 22.2 8.30234H12.5456C12.2634 9.83842 10.9176 11.0023 9.3 11.0023C7.68236 11.0023 6.33656 9.83842 6.05441 8.30234H1.79971C1.46833 8.30234 1.19971 8.03371 1.19971 7.70234C1.19971 7.37098 1.46833 7.10234 1.79971 7.10234H6.05441C6.33656 5.56627 7.68236 4.40234 9.3 4.40234ZM12.6 17.9023C12.6 16.7425 13.5402 15.8023 14.7 15.8023C15.8543 15.8023 16.791 16.7335 16.7999 17.8857C16.7998 17.8912 16.7998 17.8967 16.7998 17.9023C16.7998 17.908 16.7998 17.9135 16.7999 17.919C16.791 19.0711 15.8543 20.0023 14.7 20.0023C13.5402 20.0023 12.6 19.0621 12.6 17.9023ZM17.9456 18.5023C17.6634 20.0385 16.3176 21.2023 14.7 21.2023C13.0824 21.2023 11.7366 20.0385 11.4544 18.5023H1.80439C1.47302 18.5023 1.20439 18.2337 1.20439 17.9023C1.20439 17.571 1.47302 17.3023 1.80439 17.3023H11.4544C11.7366 15.7662 13.0824 14.6023 14.7 14.6023C16.3176 14.6023 17.6634 15.7662 17.9456 17.3023H22.2044C22.5358 17.3023 22.8044 17.571 22.8044 17.9023C22.8044 18.2337 22.5358 18.5023 22.2044 18.5023H17.9456Z" fill="#1F2026"/>
</svg>