<svg xmlns="http://www.w3.org/2000/svg" width="129" height="39" viewBox="0 0 129 39" fill="none">
  <g clip-path="url(#clip0_180_1690)">
    <path d="M123.112 38.8123H5.21701C2.62332 38.8123 0.501221 36.6902 0.501221 34.0965V5.80173C0.501221 3.20804 2.62332 1.08594 5.21701 1.08594H123.112C125.706 1.08594 127.828 3.20804 127.828 5.80173V34.0965C127.828 36.6902 125.706 38.8123 123.112 38.8123Z" fill="black"/>
    <path d="M123.112 1.84046C125.3 1.84046 127.073 3.6136 127.073 5.80173V34.0965C127.073 36.2846 125.3 38.0577 123.112 38.0577H5.21701C3.02888 38.0577 1.25575 36.2846 1.25575 34.0965V5.80173C1.25575 3.6136 3.02888 1.84046 5.21701 1.84046H123.112ZM123.112 1.08594H5.21701C2.62332 1.08594 0.501221 3.20804 0.501221 5.80173V34.0965C0.501221 36.6902 2.62332 38.8123 5.21701 38.8123H123.112C125.706 38.8123 127.828 36.6902 127.828 34.0965V5.80173C127.828 3.20804 125.706 1.08594 123.112 1.08594Z" fill="#A6A6A6"/>
    <path d="M10.3477 8.19688C10.0742 8.48926 9.91382 8.94197 9.91382 9.5173V30.38C9.91382 30.9647 10.0742 31.4174 10.3477 31.7004L10.4137 31.7664L22.0994 20.0901V19.9486V19.8072L10.4137 8.13086L10.3477 8.19688Z" fill="url(#paint0_linear_180_1690)"/>
    <path d="M25.9946 23.9855L22.0994 20.0903V19.9488V19.8074L25.9946 15.9121L26.0795 15.9593L30.6915 18.5812C32.012 19.3263 32.012 20.5524 30.6915 21.307L26.0795 23.929L25.9946 23.9855Z" fill="url(#paint1_linear_180_1690)"/>
    <path d="M26.0795 23.9293L22.0994 19.9492L10.3477 31.701C10.7815 32.1631 11.4983 32.2197 12.3094 31.7576L26.0795 23.9293Z" fill="url(#paint2_linear_180_1690)"/>
    <path d="M26.0797 15.9681L12.3001 8.13992C11.489 7.67778 10.7722 7.73437 10.3384 8.19651L22.0996 19.9483L26.0797 15.9681Z" fill="url(#paint3_linear_180_1690)"/>
    <path opacity="0.2" d="M25.9946 23.8438L12.3 31.6248C11.536 32.0587 10.8475 32.0304 10.4137 31.6342L10.3477 31.7003L10.4137 31.7663C10.857 32.1624 11.536 32.1907 12.3 31.7568L26.0795 23.9286L25.9946 23.8438Z" fill="black"/>
    <path opacity="0.12" d="M10.3477 31.5685C10.0742 31.2761 9.91382 30.8234 9.91382 30.248V30.3895C9.91382 30.9743 10.0742 31.427 10.3477 31.7099L10.4137 31.6439L10.3477 31.5685Z" fill="black"/>
    <path opacity="0.12" d="M30.6917 21.1753L25.9854 23.8445L26.0702 23.9293L30.6823 21.3074C31.3425 20.9301 31.6726 20.4397 31.6726 19.9492C31.6254 20.3925 31.2953 20.8358 30.6917 21.1753Z" fill="black"/>
    <path opacity="0.25" d="M12.3002 8.27317L30.6917 18.7234C31.2859 19.0629 31.6255 19.4968 31.6821 19.9495C31.6821 19.459 31.352 18.9592 30.6917 18.5913L12.3002 8.14113C10.9797 7.39604 9.90454 8.01852 9.90454 9.52757V9.66905C9.90454 8.15056 10.9892 7.52809 12.3002 8.27317Z" fill="white"/>
    <path d="M64.7678 21.5989C62.5514 21.5989 60.7405 23.2871 60.7405 25.6073C60.7405 27.918 62.5514 29.6157 64.7678 29.6157C66.9843 29.6157 68.7954 27.918 68.7954 25.6073C68.7954 23.2871 66.9843 21.5989 64.7678 21.5989ZM64.7678 28.0406C63.5512 28.0406 62.5043 27.0409 62.5043 25.6073C62.5043 24.1642 63.5512 23.1739 64.7678 23.1739C65.9845 23.1739 67.0314 24.1642 67.0314 25.6073C67.0314 27.0409 65.9751 28.0406 64.7678 28.0406ZM55.9776 21.5989C53.7612 21.5989 51.9503 23.2871 51.9503 25.6073C51.9503 27.918 53.7612 29.6157 55.9776 29.6157C58.194 29.6157 60.0049 27.918 60.0049 25.6073C60.0049 23.2871 58.194 21.5989 55.9776 21.5989ZM55.9776 28.0406C54.7609 28.0406 53.714 27.0409 53.714 25.6073C53.714 24.1642 54.7609 23.1739 55.9776 23.1739C57.1943 23.1739 58.2412 24.1642 58.2412 25.6073C58.2412 27.0409 57.1943 28.0406 55.9776 28.0406ZM45.5274 22.8344V24.5321H49.6019C49.4792 25.4847 49.1586 26.192 48.6776 26.673C48.0834 27.2672 47.1591 27.918 45.5368 27.918C43.028 27.918 41.0663 25.8997 41.0663 23.3909C41.0663 20.8821 43.028 18.8637 45.5368 18.8637C46.8856 18.8637 47.8759 19.3919 48.6021 20.0804L49.7999 18.8826C48.7813 17.9111 47.4326 17.166 45.5274 17.166C42.0943 17.166 39.2083 19.9578 39.2083 23.4003C39.2083 26.8334 42.0943 29.6346 45.5274 29.6346C47.3854 29.6346 48.7813 29.0309 49.8754 27.8897C50.9977 26.7674 51.3467 25.1829 51.3467 23.9096C51.3467 23.5135 51.3184 23.1456 51.2524 22.8438H45.5274V22.8344ZM88.2622 24.1548C87.9321 23.2588 86.9134 21.5989 84.8291 21.5989C82.7636 21.5989 81.047 23.2211 81.047 25.6073C81.047 27.852 82.7447 29.6157 85.0271 29.6157C86.8663 29.6157 87.9321 28.4933 88.3659 27.8426L86.9983 26.9277C86.5456 27.5973 85.9231 28.0406 85.0271 28.0406C84.1311 28.0406 83.4898 27.6256 83.0842 26.824L88.4508 24.6075L88.2622 24.1548ZM82.7918 25.4941C82.7447 23.9473 83.9897 23.1551 84.8857 23.1551C85.5836 23.1551 86.1778 23.504 86.3759 24.0039L82.7918 25.4941ZM78.4345 29.3799H80.1982V17.5904H78.4345V29.3799ZM75.5484 22.4949H75.4824C75.0863 22.0233 74.3317 21.5989 73.3697 21.5989C71.3608 21.5989 69.5216 23.3626 69.5216 25.6261C69.5216 27.8709 71.3608 29.6251 73.3697 29.6251C74.3223 29.6251 75.0863 29.2007 75.4824 28.7103H75.539V29.2856C75.539 30.8229 74.7184 31.6435 73.398 31.6435C72.3228 31.6435 71.6532 30.8701 71.3796 30.2193L69.8423 30.8607C70.2856 31.9264 71.4551 33.228 73.398 33.228C75.4635 33.228 77.2084 32.0113 77.2084 29.0498V21.8441H75.539V22.4949H75.5484ZM73.5206 28.0406C72.3039 28.0406 71.2853 27.022 71.2853 25.6261C71.2853 24.2114 72.3039 23.1834 73.5206 23.1834C74.7184 23.1834 75.6616 24.2208 75.6616 25.6261C75.671 27.022 74.7278 28.0406 73.5206 28.0406ZM96.5242 17.5904H92.3083V29.3799H94.072V24.9093H96.5337C98.486 24.9093 100.401 23.4946 100.401 21.2499C100.401 19.0052 98.4671 17.5904 96.5242 17.5904ZM96.562 23.2682H94.0626V19.2221H96.562C97.8824 19.2221 98.6275 20.3162 98.6275 21.2405C98.6275 22.1648 97.8824 23.2682 96.562 23.2682ZM107.446 21.58C106.173 21.58 104.852 22.1459 104.305 23.3814L105.871 24.0322C106.201 23.3814 106.824 23.1645 107.474 23.1645C108.38 23.1645 109.313 23.7115 109.323 24.683V24.8056C109.002 24.6264 108.323 24.3529 107.484 24.3529C105.795 24.3529 104.088 25.2772 104.088 27.0032C104.088 28.5782 105.465 29.5968 107.012 29.5968C108.191 29.5968 108.851 29.0687 109.257 28.4462H109.313V29.361H111.011V24.8433C111.021 22.7495 109.455 21.58 107.446 21.58ZM107.229 28.0406C106.654 28.0406 105.852 27.7482 105.852 27.0409C105.852 26.1354 106.852 25.7865 107.72 25.7865C108.493 25.7865 108.861 25.9562 109.323 26.1826C109.191 27.2672 108.248 28.0406 107.229 28.0406ZM117.208 21.8346L115.189 26.9466H115.133L113.039 21.8346H111.143L114.284 28.9838L112.492 32.9545H114.331L119.169 21.8346H117.208ZM101.363 29.3799H103.126V17.5904H101.363V29.3799Z" fill="white"/>
    <path d="M40.2175 14.5443H39.5195V12.6485H40.076C40.5664 12.2241 40.8022 11.5073 40.7928 10.4793V7.6875H44.5749V12.6485H45.2068V14.5443H44.5088V13.3465H40.2175V14.5443ZM41.5285 10.4887C41.5379 11.3847 41.3587 12.1015 40.9909 12.6579H43.8486V8.38544H41.5285V10.4887Z" fill="white" stroke="white" stroke-width="0.134737" stroke-miterlimit="10"/>
    <path d="M50.8751 12.6123C50.3187 13.1876 49.6302 13.4706 48.8002 13.4706C47.9702 13.4706 47.2817 13.1876 46.7252 12.6123C46.1688 12.037 45.8953 11.3391 45.8953 10.5185C45.8953 9.69796 46.1688 8.99059 46.7252 8.42469C47.2817 7.84937 47.9702 7.56641 48.8002 7.56641C49.6207 7.56641 50.3092 7.84937 50.8751 8.42469C51.4316 9.00002 51.7145 9.69796 51.7145 10.5185C51.7145 11.3485 51.4316 12.0464 50.8751 12.6123ZM47.2628 12.1407C47.6778 12.5652 48.1966 12.7727 48.8002 12.7727C49.4038 12.7727 49.9225 12.5652 50.3375 12.1407C50.7525 11.7163 50.9695 11.1787 50.9695 10.5185C50.9695 9.85829 50.762 9.32069 50.3375 8.89627C49.9225 8.47185 49.4038 8.26436 48.8002 8.26436C48.1966 8.26436 47.6778 8.47185 47.2628 8.89627C46.8479 9.32069 46.6309 9.85829 46.6309 10.5185C46.6309 11.1787 46.8479 11.7163 47.2628 12.1407Z" fill="white" stroke="white" stroke-width="0.134737" stroke-miterlimit="10"/>
    <path d="M55.374 13.4699C54.5441 13.4699 53.8461 13.187 53.2802 12.6211C52.7143 12.0552 52.4314 11.3572 52.4314 10.5084C52.4314 9.65955 52.7143 8.96161 53.2802 8.39572C53.8461 7.82982 54.5441 7.54688 55.374 7.54688C56.2229 7.54688 56.9208 7.85812 57.449 8.47117L56.9397 8.96161C56.553 8.4806 56.0343 8.24481 55.3646 8.24481C54.7516 8.24481 54.2235 8.45231 53.799 8.8673C53.3746 9.28229 53.1671 9.82932 53.1671 10.499C53.1671 11.1686 53.3746 11.7156 53.799 12.1306C54.2235 12.5456 54.7421 12.7531 55.3646 12.7531C56.0437 12.7531 56.6191 12.4796 57.1001 11.9326L57.6094 12.4419C57.3547 12.7531 57.0246 12.9983 56.6379 13.1775C56.2512 13.385 55.8268 13.4699 55.374 13.4699Z" fill="white" stroke="white" stroke-width="0.134737" stroke-miterlimit="10"/>
    <path d="M60.5615 13.3465H59.8352V8.38544H58.2507V7.6875H62.1365V8.38544H60.552V13.3465H60.5615Z" fill="white" stroke="white" stroke-width="0.134737" stroke-miterlimit="10"/>
    <path d="M67.1352 7.6875L64.9943 12.4599C64.7019 13.1295 64.2586 13.4691 63.6739 13.4691C63.5041 13.4691 63.3155 13.4313 63.108 13.3465L63.2966 12.6768C63.4192 12.7428 63.5418 12.7806 63.6739 12.7806C63.8436 12.7806 63.9757 12.7523 64.07 12.6862C64.1643 12.6202 64.2492 12.4976 64.3246 12.3278L64.5321 11.8751L62.627 7.6875H63.4852L64.8811 10.932H64.9094L66.277 7.6875H67.1352Z" fill="white" stroke="white" stroke-width="0.134737" stroke-miterlimit="10"/>
    <path d="M67.9561 13.3465V7.6875H72.0494V13.3465H71.3231V8.38544H68.6823V13.3465H67.9561Z" fill="white" stroke="white" stroke-width="0.134737" stroke-miterlimit="10"/>
    <path d="M73.3413 13.3465V7.6875H74.0675V10.1114H76.897V7.6875H77.6232V13.3465H76.897V10.7905H74.0675V13.3465H73.3413Z" fill="white" stroke="white" stroke-width="0.134737" stroke-miterlimit="10"/>
    <path d="M83.5558 12.6123C82.9993 13.1876 82.3108 13.4706 81.4809 13.4706C80.6509 13.4706 79.9624 13.1876 79.4059 12.6123C78.8494 12.037 78.5759 11.3391 78.5759 10.5185C78.5759 9.69796 78.8494 8.99059 79.4059 8.42469C79.9624 7.84937 80.6509 7.56641 81.4809 7.56641C82.3014 7.56641 82.9899 7.84937 83.5558 8.42469C84.1123 9.00002 84.3952 9.69796 84.3952 10.5185C84.3858 11.3485 84.1123 12.0464 83.5558 12.6123ZM79.9435 12.1407C80.3585 12.5652 80.8772 12.7727 81.4809 12.7727C82.0845 12.7727 82.6032 12.5652 83.0182 12.1407C83.4332 11.7163 83.6501 11.1787 83.6501 10.5185C83.6501 9.85829 83.4426 9.32069 83.0182 8.89627C82.6032 8.47185 82.0845 8.26436 81.4809 8.26436C80.8772 8.26436 80.3585 8.47185 79.9435 8.89627C79.5285 9.32069 79.3116 9.85829 79.3116 10.5185C79.3116 11.1787 79.5191 11.7163 79.9435 12.1407Z" fill="white" stroke="white" stroke-width="0.134737" stroke-miterlimit="10"/>
    <path d="M87.3567 13.3465V7.6875H89.4033C89.8466 7.6875 90.2333 7.83841 90.554 8.12136C90.8747 8.41374 91.0444 8.78157 91.0444 9.22485C91.0444 9.49837 90.9784 9.73416 90.8369 9.93222C90.6955 10.1397 90.5163 10.2906 90.2805 10.3944V10.4227C90.5634 10.517 90.7898 10.6773 90.969 10.9131C91.1482 11.1489 91.2425 11.413 91.2425 11.7242C91.2425 12.1864 91.0727 12.5731 90.7332 12.8749C90.3937 13.1767 89.9881 13.337 89.526 13.337H87.3567V13.3465ZM88.0829 10.1114H89.4033C89.6769 10.1114 89.8938 10.0171 90.0636 9.83791C90.2333 9.65871 90.3088 9.46064 90.3088 9.24372C90.3088 9.02679 90.2333 8.82873 90.0636 8.64953C89.9032 8.47033 89.6957 8.37601 89.4316 8.37601H88.0829V10.1114ZM88.0829 12.6485H89.5448C89.8278 12.6485 90.0541 12.5542 90.2239 12.3561C90.3937 12.1581 90.488 11.9506 90.488 11.7148C90.488 11.479 90.4031 11.2715 90.2145 11.0829C90.0353 10.8942 89.7995 10.7905 89.5071 10.7905H88.0735V12.6485H88.0829Z" fill="white" stroke="white" stroke-width="0.134737" stroke-miterlimit="10"/>
  </g>
  <defs>
    <linearGradient id="paint0_linear_180_1690" x1="21.0617" y1="9.30011" x2="5.23321" y2="25.1285" gradientUnits="userSpaceOnUse">
      <stop stop-color="#00A0FF"/>
      <stop offset="0.00657445" stop-color="#00A1FF"/>
      <stop offset="0.2601" stop-color="#00BEFF"/>
      <stop offset="0.5122" stop-color="#00D2FF"/>
      <stop offset="0.7604" stop-color="#00DFFF"/>
      <stop offset="1" stop-color="#00E3FF"/>
    </linearGradient>
    <linearGradient id="paint1_linear_180_1690" x1="32.4123" y1="19.9502" x2="9.59073" y2="19.9502" gradientUnits="userSpaceOnUse">
      <stop stop-color="#FFE000"/>
      <stop offset="0.4087" stop-color="#FFBD00"/>
      <stop offset="0.7754" stop-color="#FFA500"/>
      <stop offset="1" stop-color="#FF9C00"/>
    </linearGradient>
    <linearGradient id="paint2_linear_180_1690" x1="23.9169" y1="22.1148" x2="2.45221" y2="43.5795" gradientUnits="userSpaceOnUse">
      <stop stop-color="#FF3A44"/>
      <stop offset="1" stop-color="#C31162"/>
    </linearGradient>
    <linearGradient id="paint3_linear_180_1690" x1="7.38373" y1="1.25129" x2="16.9687" y2="10.8361" gradientUnits="userSpaceOnUse">
      <stop stop-color="#32A071"/>
      <stop offset="0.0685" stop-color="#2DA771"/>
      <stop offset="0.4762" stop-color="#15CF74"/>
      <stop offset="0.8009" stop-color="#06E775"/>
      <stop offset="1" stop-color="#00F076"/>
    </linearGradient>
    <clipPath id="clip0_180_1690">
      <rect width="128" height="38" fill="white" transform="translate(0.144287 0.949219)"/>
    </clipPath>
  </defs>
</svg>