<svg xmlns="http://www.w3.org/2000/svg" width="15" height="15" viewBox="0 0 15 15" fill="none">
  <g clip-path="url(#clip0_136_122)">
    <path d="M7.27178 0.823713C7.45995 0.660001 7.73999 0.659999 7.92816 0.823709L14.4296 6.48011C14.638 6.66136 14.6599 6.97718 14.4787 7.18551C14.2974 7.39384 13.9816 7.4158 13.7733 7.23455L12.9344 6.50471V12.3311C12.9344 13.0868 12.3217 13.6995 11.566 13.6995H9.59969L9.60055 8.05713C9.60055 7.78099 9.37669 7.55713 9.10055 7.55713H6.0999C5.82375 7.55713 5.5999 7.78099 5.5999 8.05713L5.59903 13.6995H3.63405C2.8783 13.6995 2.26563 13.0868 2.26563 12.3311V6.50475L1.42683 7.23454C1.2185 7.4158 0.90268 7.39385 0.721425 7.18552C0.540171 6.97719 0.56212 6.66137 0.770449 6.48011L7.27178 0.823713Z" fill="#7E818C"/>
  </g>
  <defs>
    <clipPath id="clip0_136_122">
      <rect width="14" height="14" fill="white" transform="translate(0.599609 0.199951)"/>
    </clipPath>
  </defs>
</svg>