<svg xmlns="http://www.w3.org/2000/svg" width="15" height="15" viewBox="0 0 15 15" fill="none">
  <g clip-path="url(#clip0_105_248)">
    <path fill-rule="evenodd" clip-rule="evenodd" d="M7.64014 14.5C11.5061 14.5 14.6401 11.366 14.6401 7.5C14.6401 3.63401 11.5061 0.5 7.64014 0.5C3.77415 0.5 0.640137 3.63401 0.640137 7.5C0.640137 11.366 3.77415 14.5 7.64014 14.5ZM8.64017 4C8.64017 4.55229 8.19245 5 7.64017 5C7.08788 5 6.64017 4.55229 6.64017 4C6.64017 3.44772 7.08788 3 7.64017 3C8.19245 3 8.64017 3.44772 8.64017 4ZM6.74026 6.29844C6.40889 6.29844 6.14026 6.56707 6.14026 6.89844C6.14026 7.22981 6.40889 7.49844 6.74026 7.49844H7.04022V10.3024H6.24173C5.91036 10.3024 5.64173 10.571 5.64173 10.9023C5.64173 11.2337 5.91036 11.5023 6.24173 11.5023H9.04169C9.37306 11.5023 9.64169 11.2337 9.64169 10.9023C9.64169 10.571 9.37306 10.3024 9.04169 10.3024H8.24022V6.89844C8.24022 6.56707 7.9716 6.29844 7.64022 6.29844H6.74026Z" fill="#CACBCE"/>
  </g>
  <defs>
    <clipPath id="clip0_105_248">
      <rect width="14" height="14" fill="white" transform="translate(0.640137 0.5)"/>
    </clipPath>
  </defs>
</svg>