<svg xmlns="http://www.w3.org/2000/svg" width="33" height="33" viewBox="0 0 33 33" fill="none">
  <g clip-path="url(#clip0_1_7187)">
    <path d="M16.1045 0.638672C29.4378 0.638672 32.1045 3.30534 32.1045 16.6387C32.1045 29.972 29.4378 32.6387 16.1045 32.6387C2.77116 32.6387 0.104492 29.972 0.104492 16.6387C0.104492 3.30534 2.77116 0.638672 16.1045 0.638672Z" fill="url(#paint0_linear_1_7187)"/>
    <path fill-rule="evenodd" clip-rule="evenodd" d="M16.1044 8.98629C18.5966 8.98629 18.8915 8.99595 19.8759 9.04075C20.7858 9.08222 21.28 9.23415 21.609 9.36195C22.0447 9.53129 22.3555 9.73355 22.6822 10.06C23.009 10.3867 23.2113 10.6976 23.3802 11.1332C23.508 11.4622 23.66 11.9564 23.7014 12.8664C23.7463 13.8504 23.7559 14.1456 23.7559 16.6378C23.7559 19.1301 23.7463 19.425 23.7014 20.4094C23.66 21.3192 23.508 21.8134 23.3802 22.1424C23.211 22.5782 23.0086 22.889 22.6822 23.2157C22.3555 23.5425 22.0447 23.7448 21.609 23.9137C21.28 24.0415 20.7858 24.1934 19.8759 24.2349C18.8919 24.2798 18.5966 24.2894 16.1044 24.2894C13.6122 24.2894 13.3169 24.2798 12.3329 24.2349C11.423 24.1934 10.9288 24.0415 10.5998 23.9137C10.1641 23.7444 9.85324 23.5421 9.52651 23.2157C9.19977 22.889 8.99744 22.5782 8.82851 22.1424C8.70071 21.8134 8.54877 21.3192 8.50731 20.4094C8.46251 19.4254 8.45284 19.1301 8.45284 16.6378C8.45284 14.1456 8.46251 13.8507 8.50731 12.8664C8.54877 11.9564 8.70071 11.4622 8.82851 11.1332C8.99784 10.6976 9.20011 10.3867 9.52651 10.06C9.85324 9.73322 10.1641 9.53089 10.5998 9.36195C10.9288 9.23415 11.423 9.08222 12.3329 9.04075C13.3172 8.99595 13.6122 8.98629 16.1044 8.98629ZM16.1044 7.30469C13.5696 7.30469 13.2517 7.31542 12.2562 7.36102C11.263 7.40622 10.5846 7.56402 9.99071 7.79482C9.37684 8.03342 8.85631 8.35242 8.33764 8.87142C7.81897 9.39015 7.49957 9.91062 7.26137 10.5242C7.03057 11.118 6.87277 11.7964 6.82757 12.7896C6.78197 13.7852 6.77124 14.103 6.77124 16.6378C6.77124 19.1727 6.78197 19.4906 6.82757 20.486C6.87277 21.4793 7.03057 22.1576 7.26137 22.7515C7.49997 23.3654 7.81897 23.8859 8.33797 24.4046C8.85704 24.9236 9.37717 25.2426 9.99111 25.4812C10.5846 25.712 11.2633 25.8698 12.2566 25.915C13.252 25.9606 13.5699 25.9714 16.1048 25.9714C18.6396 25.9714 18.9574 25.9606 19.953 25.915C20.9462 25.8698 21.6249 25.712 22.2184 25.4812C22.8323 25.2426 23.3528 24.9236 23.8715 24.4046C24.3906 23.8856 24.7096 23.3654 24.9481 22.7515C25.1789 22.158 25.3368 21.4793 25.382 20.486C25.4275 19.4906 25.4383 19.1727 25.4383 16.6378C25.4383 14.103 25.4275 13.7852 25.382 12.7896C25.3368 11.7964 25.1789 11.1177 24.9481 10.5242C24.7096 9.91029 24.3906 9.38975 23.8715 8.87109C23.3524 8.35202 22.8323 8.03302 22.2184 7.79449C21.6242 7.56402 20.9458 7.40622 19.9526 7.36102C18.9571 7.31542 18.6392 7.30469 16.1044 7.30469ZM16.1044 11.8453C13.4573 11.8453 11.3118 13.9912 11.3118 16.6378C11.3118 19.2846 13.4577 21.4304 16.1044 21.4304C18.7511 21.4304 20.8969 19.2846 20.8969 16.6378C20.8969 13.9912 18.7514 11.8453 16.1044 11.8453ZM16.1044 19.7488C14.3861 19.7488 12.9934 18.3558 12.9934 16.6378C12.9934 14.9196 14.3864 13.5269 16.1044 13.5269C17.8223 13.5269 19.2153 14.9199 19.2153 16.6378C19.2153 18.3562 17.8227 19.7488 16.1044 19.7488ZM22.2066 11.6556C22.2066 12.2742 21.7052 12.7756 21.0866 12.7756C20.4681 12.7756 19.9666 12.2742 19.9666 11.6556C19.9666 11.0371 20.4681 10.5356 21.0866 10.5356C21.7052 10.5356 22.2066 11.0371 22.2066 11.6556Z" fill="white"/>
  </g>
  <defs>
    <linearGradient id="paint0_linear_1_7187" x1="28.6448" y1="4.4096" x2="3.46728" y2="28.9623" gradientUnits="userSpaceOnUse">
      <stop stop-color="#BA00B2"/>
      <stop offset="0.5" stop-color="#F40000"/>
      <stop offset="1" stop-color="#FFA800"/>
    </linearGradient>
    <clipPath id="clip0_1_7187">
      <rect width="32" height="32" fill="white" transform="translate(0.104492 0.638672)"/>
    </clipPath>
  </defs>
</svg>