<svg xmlns="http://www.w3.org/2000/svg" width="25" height="25" viewBox="0 0 25 25" fill="none">
  <path fill-rule="evenodd" clip-rule="evenodd" d="M9.63452 7.05933C9.63452 5.44712 10.8747 4.05933 12.6345 4.05933C14.3943 4.05933 15.6345 5.44712 15.6345 7.05933V8.05933H9.63452V7.05933ZM8.13452 9.55933V12.0593H9.63452V9.55933H15.6345V12.0593H17.1345V9.55933H19.1345V20.3093C19.1345 20.7235 18.7987 21.0593 18.3845 21.0593H6.88452C6.47031 21.0593 6.13452 20.7235 6.13452 20.3093V9.55933H8.13452ZM8.13452 8.05933V7.05933C8.13452 4.67154 9.99436 2.55933 12.6345 2.55933C15.2747 2.55933 17.1345 4.67154 17.1345 7.05933V8.05933H19.8845H20.6345V8.80933V20.3093C20.6345 21.5519 19.6271 22.5593 18.3845 22.5593H6.88452C5.64188 22.5593 4.63452 21.5519 4.63452 20.3093V8.80933V8.05933H5.38452H8.13452Z" fill="#1F2026"/>
</svg>