<svg xmlns="http://www.w3.org/2000/svg" width="25" height="25" viewBox="0 0 25 25" fill="none">
  <path fill-rule="evenodd" clip-rule="evenodd" d="M7.10449 11.5593C7.10449 8.79791 9.34307 6.55933 12.1045 6.55933C14.8659 6.55933 17.1045 8.79791 17.1045 11.5593C17.1045 13.791 15.9124 15.8022 14.6198 17.2855C13.9783 18.0216 13.3257 18.6118 12.8142 19.0154C12.5581 19.2175 12.342 19.3691 12.1847 19.4675C12.1549 19.4861 12.1282 19.5022 12.1045 19.516C12.0808 19.5022 12.0541 19.4861 12.0243 19.4675C11.867 19.3691 11.6509 19.2175 11.3948 19.0154C10.8833 18.6118 10.2307 18.0216 9.5892 17.2855C8.29657 15.8022 7.10449 13.791 7.10449 11.5593ZM12.1045 5.55933C8.79078 5.55933 6.10449 8.24562 6.10449 11.5593C6.10449 14.1401 7.47276 16.3789 8.8353 17.9425C9.5214 18.7298 10.2201 19.3623 10.7754 19.8004C11.0527 20.0193 11.2989 20.1933 11.4942 20.3154C11.5911 20.376 11.6823 20.4281 11.7627 20.4669C11.8027 20.4862 11.8473 20.5058 11.8934 20.5216C11.9296 20.534 12.0089 20.5593 12.1045 20.5593C12.2001 20.5593 12.2794 20.534 12.3156 20.5216C12.3617 20.5058 12.4063 20.4862 12.4463 20.4669C12.5267 20.4281 12.6179 20.376 12.7148 20.3154C12.9101 20.1933 13.1563 20.0193 13.4336 19.8004C13.9889 19.3623 14.6876 18.7298 15.3737 17.9425C16.7362 16.3789 18.1045 14.1401 18.1045 11.5593C18.1045 8.24562 15.4182 5.55933 12.1045 5.55933ZM11.1045 11.5593C11.1045 11.007 11.5522 10.5593 12.1045 10.5593C12.6568 10.5593 13.1045 11.007 13.1045 11.5593C13.1045 12.1116 12.6568 12.5593 12.1045 12.5593C11.5522 12.5593 11.1045 12.1116 11.1045 11.5593ZM12.1045 9.55933C10.9999 9.55933 10.1045 10.4548 10.1045 11.5593C10.1045 12.6639 10.9999 13.5593 12.1045 13.5593C13.2091 13.5593 14.1045 12.6639 14.1045 11.5593C14.1045 10.4548 13.2091 9.55933 12.1045 9.55933Z" fill="#1F2026"/>
</svg>