<svg xmlns="http://www.w3.org/2000/svg" width="25" height="25" viewBox="0 0 25 25" fill="none">
  <path fill-rule="evenodd" clip-rule="evenodd" d="M12.1863 3.55933C9.97714 3.55933 8.18628 5.35019 8.18628 7.55933V8.55933C8.18628 10.7684 9.97714 12.5593 12.1863 12.5593C14.3954 12.5593 16.1863 10.7684 16.1863 8.55933V7.55933C16.1863 5.35019 14.3954 3.55933 12.1863 3.55933ZM9.68628 7.55933C9.68628 6.17862 10.8056 5.05933 12.1863 5.05933C13.567 5.05933 14.6863 6.17862 14.6863 7.55933V8.55933C14.6863 9.94004 13.567 11.0593 12.1863 11.0593C10.8056 11.0593 9.68628 9.94004 9.68628 8.55933V7.55933ZM5.6886 19.9279C6.15949 16.817 9.20431 15.0593 12.1885 15.0593C15.1721 15.0593 18.2173 16.817 18.6882 19.9279C18.6909 19.9459 18.6888 19.9565 18.6863 19.9641C18.6833 19.973 18.6766 19.9862 18.6622 20.0013C18.6316 20.0334 18.5757 20.0632 18.5034 20.0632H5.87346C5.80115 20.0632 5.74526 20.0334 5.71466 20.0013C5.70022 19.9862 5.69354 19.973 5.69055 19.9641C5.68802 19.9565 5.68589 19.9458 5.6886 19.9279ZM12.1885 13.5593C8.75949 13.5593 4.82665 15.5997 4.2055 19.7034C4.04252 20.7801 4.94355 21.5632 5.87346 21.5632H18.5034C19.4333 21.5632 20.3343 20.7801 20.1713 19.7034C19.5501 15.5997 15.6169 13.5593 12.1885 13.5593Z" fill="#1F2026"/>
</svg>