<svg xmlns="http://www.w3.org/2000/svg" width="25" height="25" viewBox="0 0 25 25" fill="none">
  <path fill-rule="evenodd" clip-rule="evenodd" d="M8.19629 6.05933C5.96564 6.05933 4.19629 7.86839 4.19629 10.0593C4.19629 10.9875 4.57313 12.0029 5.24499 13.0698C5.91321 14.1309 6.83777 15.1867 7.84756 16.1812C9.25398 17.5663 10.7281 18.7472 11.8671 19.6596C12.1697 19.902 12.4486 20.1254 12.6963 20.3287C12.944 20.1254 13.2229 19.902 13.5255 19.6596C14.6645 18.7472 16.1386 17.5663 17.545 16.1812C18.5548 15.1867 19.4794 14.1309 20.1476 13.0698C20.8195 12.0029 21.1963 10.9875 21.1963 10.0593C21.1963 7.86831 19.4277 6.05933 17.1963 6.05933C15.0436 6.05933 13.7701 7.76159 13.4225 8.30675C13.0852 8.83588 12.3074 8.83586 11.9701 8.30675C11.6225 7.76158 10.349 6.05933 8.19629 6.05933ZM2.69629 10.0593C2.69629 7.05027 5.12694 4.55933 8.19629 4.55933C10.4277 4.55933 11.9212 5.8614 12.6963 6.77514C13.4714 5.8614 14.9649 4.55933 17.1963 4.55933C20.2665 4.55933 22.6963 7.05035 22.6963 10.0593C22.6963 11.3811 22.1669 12.6782 21.4169 13.8691C20.6632 15.0659 19.6503 16.2132 18.5976 17.2499C17.1392 18.6862 15.5043 19.9977 14.3465 20.9265C13.8612 21.3158 13.4597 21.6379 13.1902 21.8737C12.9074 22.1212 12.4852 22.1212 12.2024 21.8737C11.9329 21.6379 11.5314 21.3158 11.0461 20.9265C9.8883 19.9977 8.25341 18.6862 6.79502 17.2499C5.74231 16.2132 4.72937 15.0659 3.97571 13.8691C3.2257 12.6782 2.69629 11.3811 2.69629 10.0593Z" fill="#1F2026"/>
</svg>