<svg xmlns="http://www.w3.org/2000/svg" width="29" height="29" viewBox="0 0 29 29" fill="none">
  <path d="M9.83965 8.04628C9.83965 5.73294 11.6574 3.33594 14.55 3.33594C17.4426 3.33594 19.2603 5.73293 19.2603 8.04628H23.4997V22.4128C23.4997 24.364 21.918 25.9456 19.9669 25.9456H9.1331C7.18201 25.9456 5.60034 24.364 5.60034 22.4128V8.04628H9.83965ZM11.2528 8.04628H17.8472C17.8472 6.40295 16.5561 4.74904 14.55 4.74904C12.5439 4.74904 11.2528 6.40294 11.2528 8.04628ZM9.83965 9.45939H7.01345V22.4128C7.01345 23.5834 7.96245 24.5325 9.1331 24.5325H19.9669C21.1375 24.5325 22.0865 23.5834 22.0865 22.4128V9.45939H19.2603V12.2856H17.8472V9.45939H11.2528V12.2856H9.83965V9.45939Z" fill="#7000FF"/>
</svg>