<svg xmlns="http://www.w3.org/2000/svg" width="132" height="186" viewBox="0 0 132 186" fill="none">
  <path d="M4 38H128V156C128 170.359 116.359 182 102 182H30C15.6406 182 4 170.359 4 156V38Z" stroke="#7000FF" stroke-width="8"/>
  <path d="M95.9945 38.0382C95.9067 38.0944 95.75 38.1792 95.4895 38.276C94.324 38.7088 92.2819 38.9568 89.1901 38.9946C86.2879 39.0302 82.8192 38.8848 78.8602 38.7189L78.4287 38.7008C74.3247 38.529 69.7639 38.3449 65 38.3449C60.2357 38.3449 55.707 38.5291 51.6423 38.7009C51.4888 38.7073 51.3361 38.7138 51.184 38.7202C47.2766 38.8856 43.8651 39.03 41.0018 38.9946C37.9516 38.9569 35.9113 38.7108 34.7088 38.2709C34.2528 38.1041 34.0635 37.96 34.0037 37.9062C34.0018 37.8887 34.0001 37.8637 34 37.8303C34.002 18.2836 48.1716 3 64.9939 3C81.6254 3 94.3909 18.1888 95.9945 38.0382ZM34.0092 37.9397C34.0091 37.9397 34.009 37.9391 34.0086 37.9377L34.0092 37.9397Z" stroke="#7000FF" stroke-width="6"/>
  <rect x="31" y="42" width="7" height="24" fill="#7000FF"/>
  <rect x="92" y="42" width="7" height="24" fill="#7000FF"/>
</svg>