<svg xmlns="http://www.w3.org/2000/svg" width="23" height="20" viewBox="0 0 23 20" fill="none">
  <path d="M6.16215 0.220703C2.72819 0.220703 0.0109863 3.0118 0.0109863 6.38099C0.0109863 11.5255 7.07546 16.7069 10.8539 19.8288C11.1206 20.0626 11.5193 20.0626 11.786 19.8288C15.5608 16.7069 22.6289 11.5255 22.6289 6.38099C22.6289 3.01187 19.9127 0.220703 16.4778 0.220703C13.8652 0.220703 12.1531 1.821 11.32 2.85088C10.4868 1.821 8.77468 0.220703 6.16215 0.220703ZM1.42461 6.38099C1.42461 3.77974 3.52135 1.63381 6.16215 1.63381C8.72275 1.63381 10.2237 3.66643 10.62 4.29134C10.9442 4.80254 11.6957 4.80254 12.0199 4.29134C12.4162 3.66643 13.9171 1.63381 16.4778 1.63381C19.1194 1.63381 21.2153 3.77966 21.2153 6.38099C21.2153 10.6777 14.6184 15.7648 11.32 18.3713C8.0215 15.7648 1.42461 10.6777 1.42461 6.38099Z" fill="#7000FF"/>
</svg>