<svg xmlns="http://www.w3.org/2000/svg" width="35" height="35" viewBox="0 0 35 35" fill="none">
  <g clip-path="url(#clip0_188_20)">
    <path d="M15.613 20.485C15.761 20.4846 15.9089 20.4841 16.0569 20.4837C16.3661 20.4829 16.6753 20.4826 16.9846 20.4827C17.376 20.4827 17.7673 20.4808 18.1587 20.4785C18.4643 20.4769 18.7699 20.4767 19.0755 20.4767C19.2195 20.4766 19.3636 20.476 19.5076 20.4749C23.1901 20.45 26.4779 21.9288 29.091 24.4857C29.877 25.2725 30.5414 26.1802 31.1033 27.1389C31.1441 27.2082 31.1441 27.2082 31.1857 27.279C31.9728 28.6403 32.4498 30.111 32.744 31.6506C32.7691 31.7713 32.7691 31.7713 32.7947 31.8944C32.8918 32.4363 32.8986 32.981 32.9063 33.5305C32.9081 33.6081 32.9099 33.6857 32.9117 33.7657C32.9126 34.1848 32.9107 34.4761 32.6072 34.7951C32.3236 35.0064 32.1135 35.0259 31.7633 35.0262C31.7132 35.0265 31.6631 35.0268 31.6114 35.0272C31.4429 35.028 31.2745 35.0273 31.106 35.0267C30.9842 35.027 30.8624 35.0274 30.7405 35.0278C30.4054 35.0288 30.0703 35.0285 29.7351 35.028C29.3738 35.0277 29.0126 35.0285 28.6513 35.0292C27.9434 35.0304 27.2354 35.0305 26.5275 35.0301C25.9522 35.0298 25.377 35.0299 24.8017 35.0303C24.679 35.0304 24.679 35.0304 24.5539 35.0305C24.3877 35.0306 24.2216 35.0307 24.0554 35.0308C22.4964 35.0317 20.9374 35.0313 19.3784 35.0306C17.9513 35.0299 16.5242 35.0308 15.0971 35.0324C13.6327 35.0341 12.1682 35.0347 10.7038 35.0343C9.88123 35.034 9.05871 35.0342 8.23618 35.0354C7.53599 35.0364 6.83581 35.0364 6.13562 35.0352C5.77824 35.0346 5.42086 35.0345 5.06348 35.0356C4.73647 35.0365 4.4095 35.0362 4.08249 35.0349C3.96404 35.0346 3.84559 35.0348 3.72714 35.0355C3.56636 35.0364 3.40568 35.0356 3.24491 35.0344C3.11085 35.0344 3.11085 35.0344 2.97409 35.0344C2.62644 34.9848 2.40949 34.8386 2.19771 34.5614C2.11124 34.3677 2.0916 34.2343 2.08932 34.0229C2.08852 33.9526 2.08773 33.8823 2.08691 33.8099C2.08762 33.7346 2.08832 33.6593 2.08905 33.5817C2.08967 33.5029 2.09028 33.4241 2.09092 33.3429C2.12809 31.4482 2.63327 29.5806 3.48615 27.8908C3.51095 27.8412 3.53576 27.7916 3.56131 27.7405C4.15651 26.5683 4.93032 25.5095 5.85058 24.5715C5.94533 24.4746 6.03848 24.3763 6.1316 24.2779C8.61656 21.7023 12.0884 20.4875 15.613 20.485ZM13.4837 22.7382C13.4211 22.75 13.3584 22.7617 13.2939 22.7738C10.3613 23.3589 7.79005 25.1271 6.11878 27.5925C5.11237 29.1181 4.2381 31.0856 4.2381 32.9494C12.9908 32.9494 21.7436 32.9494 30.7615 32.9494C30.6224 31.8493 30.6224 31.8493 30.3727 30.7833C30.3553 30.7246 30.3379 30.6659 30.3199 30.6055C29.7631 28.8008 28.775 27.2662 27.4803 25.9084C27.4298 25.8543 27.3793 25.8002 27.3273 25.7444C25.8068 24.16 23.6569 23.1377 21.5159 22.7382C21.4595 22.7276 21.4031 22.717 21.345 22.706C20.1722 22.5069 18.9696 22.5479 17.7843 22.5499C17.5474 22.5503 17.3105 22.55 17.0736 22.5496C15.2708 22.5316 15.2708 22.5316 13.4837 22.7382Z" fill="#7000FF"/>
    <path d="M19.7559 0.206053C19.8104 0.221122 19.865 0.23619 19.9212 0.251715C21.5048 0.7027 22.7988 1.47061 23.9941 2.59863C24.0445 2.64463 24.0949 2.69063 24.1469 2.73802C25.352 3.87904 26.0868 5.39208 26.5234 6.97363C26.5431 7.04347 26.5431 7.04347 26.5632 7.11472C26.914 8.42849 26.8917 10.1794 26.5234 11.4854C26.5084 11.5399 26.4933 11.5945 26.4778 11.6507C26.0268 13.2343 25.2589 14.5283 24.1309 15.7236C24.0849 15.774 24.0389 15.8244 23.9915 15.8764C22.8504 17.0815 21.3374 17.8163 19.7559 18.2529C19.686 18.2726 19.686 18.2726 19.6148 18.2927C18.301 18.6435 16.55 18.6212 15.2441 18.2529C15.1896 18.2379 15.135 18.2228 15.0787 18.2073C13.4952 17.7563 12.2012 16.9884 11.0059 15.8604C10.9555 15.8144 10.905 15.7684 10.8531 15.721C9.648 14.5799 8.9132 13.0669 8.47656 11.4854C8.46343 11.4388 8.4503 11.3922 8.43677 11.3443C8.08599 10.0305 8.1083 8.27954 8.47656 6.97363C8.49916 6.89176 8.49916 6.89176 8.52222 6.80824C8.97321 5.22472 9.74112 3.93065 10.8691 2.73535C10.9151 2.68495 10.9611 2.63454 11.0085 2.58261C12.1495 1.37749 13.6626 0.642695 15.2441 0.206053C15.314 0.186359 15.314 0.186359 15.3852 0.166266C16.699 -0.184517 18.45 -0.162208 19.7559 0.206053ZM12.2363 4.37598C10.8412 5.87231 10.3137 7.7197 10.3647 9.72616C10.4097 10.735 10.6891 11.6139 11.1426 12.5107C11.1791 12.5831 11.2157 12.6554 11.2534 12.73C12.1627 14.3938 13.7876 15.6192 15.5945 16.1552C17.5452 16.6255 19.442 16.3639 21.1914 15.3818C21.4841 15.2004 21.7497 14.9897 22.0117 14.7666C22.0703 14.7182 22.1289 14.6698 22.1893 14.62C23.4852 13.5083 24.4137 11.8949 24.6094 10.1865C24.7629 8.16997 24.3701 6.28338 23.0371 4.71777C22.9887 4.65917 22.9404 4.60057 22.8905 4.5402C21.6294 3.07005 19.8653 2.23999 17.9486 2.0603C15.7377 1.96335 13.7785 2.8132 12.2363 4.37598Z" fill="#7000FF"/>
  </g>
  <defs>
    <clipPath id="clip0_188_20">
      <rect width="35" height="35" fill="white"/>
    </clipPath>
  </defs>
</svg>