<svg xmlns="http://www.w3.org/2000/svg" width="35" height="35" viewBox="0 0 35 35" fill="none">
  <g clip-path="url(#clip0_188_15)">
    <path d="M12.2362 2.18743C12.2858 2.20171 12.3353 2.216 12.3864 2.23072C14.2973 2.79952 16.153 4.10392 17.2905 5.75066C17.3371 5.81551 17.3836 5.88037 17.4315 5.94719C17.4766 5.94719 17.5218 5.94719 17.5682 5.94719C17.6821 5.82129 17.6821 5.82129 17.8032 5.65666C19.2783 3.77571 21.348 2.29754 23.7625 1.94843C24.2608 1.89252 24.7621 1.89136 25.2629 1.88835C25.3339 1.88754 25.3339 1.88754 25.4063 1.88671C26.12 1.88042 26.7842 1.96407 27.4804 2.11907C27.5363 2.13119 27.5922 2.14332 27.6498 2.15582C29.3353 2.54679 30.7628 3.46334 31.9921 4.64836C32.058 4.70903 32.058 4.70903 32.1253 4.77093C33.8512 6.40026 34.9141 9.0639 35.0109 11.4095C35.0123 11.5061 35.0132 11.6027 35.0138 11.6993C35.0142 11.7518 35.0145 11.8043 35.0149 11.8585C35.0156 11.9695 35.016 12.0806 35.0163 12.1916C35.017 12.3571 35.0191 12.5225 35.0212 12.6879C35.0278 13.6484 34.9121 14.5877 34.6453 15.5132C34.631 15.5632 34.6167 15.6131 34.602 15.6646C34.1316 17.2422 33.3269 18.7232 32.3339 20.0292C32.3021 20.0712 32.2704 20.1132 32.2377 20.1565C31.6502 20.9301 31.0336 21.6929 30.3354 22.3697C30.2184 22.4865 30.112 22.6074 30.0054 22.7337C29.491 23.331 28.9179 23.9003 28.3156 24.4088C28.0887 24.6065 27.8706 24.8135 27.6512 25.0195C27.3451 25.3066 27.0382 25.5914 26.7199 25.8651C26.5652 25.9995 26.4142 26.1376 26.2627 26.2756C26.026 26.4895 25.7846 26.6946 25.5364 26.8951C25.2764 27.1053 25.0262 27.3223 24.7802 27.5488C24.4746 27.83 24.1587 28.0936 23.8357 28.3544C23.6558 28.5028 23.4827 28.6563 23.3104 28.8134C23.0165 29.0813 22.7117 29.3324 22.4025 29.5824C22.1634 29.7803 21.9352 29.9889 21.7059 30.1979C21.5283 30.3557 21.3462 30.5057 21.1614 30.6548C20.9014 30.8651 20.6512 31.0821 20.4052 31.3085C20.0991 31.5898 19.7851 31.8572 19.4609 32.1173C19.3398 32.2151 19.2201 32.3145 19.1021 32.4159C18.548 32.8842 18.0396 33.1461 17.3001 33.1158C16.6631 33.0252 16.2112 32.7318 15.7562 32.292C15.5825 32.1257 15.4018 31.9757 15.2141 31.8255C14.8879 31.5616 14.5788 31.2831 14.2702 30.999C14.025 30.7789 13.7697 30.573 13.5134 30.3662C13.3336 30.2178 13.1605 30.0642 12.9882 29.9072C12.7546 29.6942 12.5161 29.4907 12.2704 29.2919C11.9653 29.0451 11.6738 28.7871 11.3839 28.5229C11.2048 28.3637 11.0211 28.2121 10.8348 28.0614C10.5293 27.8143 10.2373 27.5559 9.94697 27.2911C9.77564 27.1389 9.59964 26.9954 9.42066 26.8523C9.00601 26.5172 8.62125 26.1527 8.23345 25.7872C8.01913 25.5854 7.80039 25.3897 7.57763 25.1973C6.50949 24.2734 5.42182 23.3066 4.50599 22.2298C4.3727 22.0775 4.23407 21.9311 4.09462 21.7844C3.615 21.277 3.18855 20.7378 2.77454 20.1759C2.67144 20.0367 2.56644 19.8991 2.46109 19.7617C0.899509 17.6835 -0.0289257 15.1871 -0.0216974 12.5866C-0.0214819 12.4253 -0.0230905 12.2642 -0.0248183 12.103C-0.0279356 11.3548 0.055764 10.6448 0.20496 9.91203C0.218183 9.8469 0.231407 9.78177 0.245031 9.71467C0.278146 9.56424 0.31462 9.41566 0.354496 9.26689C0.368661 9.21399 0.382827 9.16109 0.397421 9.10659C0.88941 7.35693 1.83334 5.88772 3.07605 4.58C3.13448 4.51497 3.13448 4.51497 3.19408 4.44863C4.47233 3.07205 6.39043 2.3087 8.20301 1.98235C8.26492 1.97064 8.32684 1.95893 8.39063 1.94687C9.62534 1.76445 11.0419 1.83536 12.2362 2.18743ZM4.13135 6.54106C2.41781 8.50198 1.97563 11.01 2.11902 13.5351C2.16528 14.0029 2.25999 14.4517 2.39246 14.9023C2.40711 14.9523 2.42176 15.0023 2.43685 15.0538C2.91205 16.6181 3.7832 18.0003 4.78504 19.2773C4.86435 19.3787 4.86435 19.3787 4.94526 19.4821C5.31475 19.9433 5.71323 20.3749 6.11678 20.806C6.21919 20.9164 6.32023 21.0278 6.42086 21.1398C6.71849 21.4706 7.01627 21.7867 7.35813 22.0728C7.59254 22.282 7.81119 22.5061 8.03211 22.7294C8.33401 23.034 8.63508 23.334 8.9627 23.6111C9.12266 23.7469 9.27789 23.8875 9.43348 24.0282C9.68095 24.2516 9.93044 24.4723 10.182 24.691C10.34 24.8301 10.4955 24.9718 10.6511 25.1135C10.9499 25.3834 11.2589 25.6379 11.5718 25.891C11.8109 26.0888 12.039 26.2973 12.2683 26.5063C12.4473 26.6655 12.631 26.817 12.8173 26.9677C13.1223 27.2145 13.4139 27.4725 13.7038 27.7367C13.8829 27.8959 14.0665 28.0475 14.2528 28.1982C14.558 28.445 14.8496 28.7031 15.1396 28.9675C15.3171 29.1252 15.4993 29.2752 15.6841 29.4244C15.9473 29.6371 16.2 29.8572 16.4489 30.0866C16.7953 30.4029 16.7953 30.4029 17.1495 30.7104C17.2191 30.7701 17.2191 30.7701 17.29 30.8311C17.4313 30.9158 17.4313 30.9158 17.596 30.8634C17.811 30.74 17.9811 30.5869 18.1578 30.4156C18.4822 30.1093 18.8169 29.8234 19.1645 29.5435C19.3437 29.396 19.5159 29.2432 19.6874 29.0868C19.9813 28.8189 20.2862 28.5679 20.5953 28.3178C20.7758 28.1684 20.9498 28.0142 21.1229 27.8564C21.4169 27.5885 21.7217 27.3374 22.0308 27.0873C22.27 26.8894 22.4984 26.6807 22.7278 26.4716C22.9037 26.3152 23.0844 26.1668 23.2677 26.0192C23.6196 25.7345 23.9519 25.4328 24.2837 25.1255C24.5915 24.8413 24.9071 24.5674 25.2272 24.2971C26.0922 23.5652 26.9173 22.7936 27.7095 21.9833C27.8387 21.8571 27.9649 21.7427 28.1041 21.629C28.2661 21.4937 28.3975 21.3656 28.5314 21.2041C28.6947 21.0122 28.863 20.8326 29.0441 20.6573C29.3075 20.3969 29.541 20.1194 29.7723 19.8303C29.8913 19.6815 30.0115 19.5346 30.1338 19.3886C30.9416 18.4161 31.6072 17.3528 32.1288 16.2011C32.1576 16.1383 32.1576 16.1383 32.1869 16.0742C32.4972 15.3861 32.6762 14.6855 32.8124 13.9452C32.8305 13.85 32.8305 13.85 32.8489 13.7528C33.1852 11.4505 32.6467 9.02828 31.317 7.12212C30.2306 5.70509 28.9231 4.74148 27.2069 4.23821C27.1297 4.21494 27.0525 4.19168 26.973 4.16771C25.1989 3.72624 23.3217 4.02017 21.7545 4.93115C21.246 5.23982 20.7966 5.59967 20.371 6.01555C20.3103 6.07477 20.2497 6.13398 20.1873 6.19499C20.1351 6.24857 20.0829 6.30215 20.0292 6.35735C19.9943 6.39043 19.9595 6.42351 19.9236 6.4576C19.6181 6.75122 19.374 7.06279 19.1362 7.41265C18.2935 8.6363 18.2935 8.6363 17.91 8.74993C17.4245 8.81028 17.0833 8.7906 16.6734 8.51571C16.4555 8.33617 16.3154 8.12022 16.1669 7.88262C16.1026 7.78467 16.0382 7.68684 15.9735 7.58915C15.9426 7.54197 15.9116 7.4948 15.8797 7.44619C15.6865 7.15941 15.4663 6.89515 15.244 6.63078C15.2066 6.58417 15.1691 6.53755 15.1305 6.48953C14.8027 6.09346 14.4188 5.78284 14.0136 5.46868C13.9559 5.42206 13.8983 5.37544 13.8389 5.32742C10.8134 2.97782 6.61517 3.91088 4.13135 6.54106Z" fill="#7000FF"/>
  </g>
  <defs>
    <clipPath id="clip0_188_15">
      <rect width="35" height="35" fill="white"/>
    </clipPath>
  </defs>
</svg>