<svg xmlns="http://www.w3.org/2000/svg" width="28" height="28" viewBox="0 0 28 28" fill="none">
  <path d="M14.0153 3.46875C11.1526 3.46875 8.83203 5.78938 8.83203 8.65203C8.83203 11.5147 11.1526 13.8353 14.0153 13.8353C16.878 13.8353 19.1986 11.5147 19.1986 8.65203C19.1986 5.78938 16.878 3.46875 14.0153 3.46875ZM10.2457 8.65203C10.2457 6.5701 11.9334 4.88237 14.0153 4.88237C16.0972 4.88237 17.785 6.5701 17.785 8.65203C17.785 10.7339 16.0972 12.4217 14.0153 12.4217C11.9334 12.4217 10.2457 10.7339 10.2457 8.65203Z" fill="#7000FF"/>
  <path d="M14.0176 14.7773C8.99103 14.7773 4.59106 18.548 4.59106 23.2591C4.59106 24.3001 5.43493 25.1439 6.47589 25.1439H21.5545C22.5955 25.1439 23.4393 24.3001 23.4393 23.2591C23.4393 18.5524 19.0448 14.7773 14.0176 14.7773ZM6.00469 23.2591C6.00469 19.481 9.6102 16.191 14.0176 16.191C18.4241 16.191 22.0257 19.484 22.0257 23.2591C22.0257 23.5193 21.8147 23.7303 21.5545 23.7303H6.47589C6.21565 23.7303 6.00469 23.5193 6.00469 23.2591Z" fill="#7000FF"/>
</svg>