<svg xmlns="http://www.w3.org/2000/svg" width="28" height="28" viewBox="0 0 28 28" fill="none">
  <path d="M1.52319 12.4217C1.52319 7.47711 5.53009 3.46875 10.4728 3.46875C15.4156 3.46875 19.4225 7.47711 19.4225 12.4217C19.4225 14.6392 18.6166 16.6684 17.2817 18.2322L22.9831 23.9185C23.2594 24.194 23.26 24.6416 22.9846 24.918C22.709 25.1944 22.2617 25.1952 21.9853 24.9195L16.2827 19.2319C14.7192 20.5679 12.6902 21.3746 10.4728 21.3746C5.53009 21.3746 1.52319 17.3662 1.52319 12.4217ZM10.4728 4.88237C6.31052 4.88237 2.9363 8.25783 2.9363 12.4217C2.9363 16.5855 6.31052 19.961 10.4728 19.961C14.6352 19.961 18.0094 16.5855 18.0094 12.4217C18.0094 8.25783 14.6352 4.88237 10.4728 4.88237Z" fill="#7000FF"/>
  <path d="M21.5424 6.29688C21.1521 6.29688 20.8357 6.61327 20.8357 7.00356C20.8357 7.39384 21.1521 7.71024 21.5424 7.71024H25.3113C25.7016 7.71024 26.018 7.39384 26.018 7.00356C26.018 6.61327 25.7016 6.29688 25.3113 6.29688H21.5424Z" fill="#7000FF"/>
  <path d="M21.5424 11.7148C21.1521 11.7148 20.8357 12.0312 20.8357 12.4215C20.8357 12.8118 21.1521 13.1282 21.5424 13.1282H25.3113C25.7016 13.1282 26.018 12.8118 26.018 12.4215C26.018 12.0312 25.7016 11.7148 25.3113 11.7148H21.5424Z" fill="#7000FF"/>
  <path d="M21.5424 17.1328C21.1521 17.1328 20.8357 17.4492 20.8357 17.8395C20.8357 18.2298 21.1521 18.5462 21.5424 18.5462H25.3113C25.7016 18.5462 26.018 18.2298 26.018 17.8395C26.018 17.4492 25.7016 17.1328 25.3113 17.1328H21.5424Z" fill="#7000FF"/>
</svg>