<svg xmlns="http://www.w3.org/2000/svg" width="17" height="17" viewBox="0 0 17 17" fill="none">
  <path d="M8.10449 11.226C8.31163 11.2201 8.50103 11.1426 8.65496 10.9756L12.4032 7.09743C12.5335 6.96623 12.6045 6.79923 12.6045 6.60242C12.6045 6.20879 12.2967 5.8927 11.9061 5.8927C11.7167 5.8927 11.5332 5.97023 11.397 6.10741L8.11043 9.5263L4.81193 6.10741C4.6758 5.97619 4.49823 5.8927 4.30291 5.8927C3.91227 5.8927 3.60449 6.20879 3.60449 6.60242C3.60449 6.79923 3.67552 6.96623 3.80573 7.09743L7.55996 10.9756C7.71976 11.1426 7.89736 11.226 8.10449 11.226Z" fill="#7E818C"/>
</svg>