<svg xmlns="http://www.w3.org/2000/svg" width="28" height="29" viewBox="0 0 28 29" fill="none">
  <path d="M14.3099 8.56055C13.9438 8.56055 13.5839 8.57607 13.2272 8.60708L13.2209 13.6394H15.3927V8.60708C15.0359 8.56055 14.6761 8.56055 14.3099 8.56055Z" fill="#7000FF"/>
  <path d="M18.6021 19.4611C19.7403 18.3233 20.3798 16.78 20.3798 15.1707V11.5383C19.5926 11.2755 18.788 11.0682 17.9718 10.918V15.1491C17.9718 18.1921 16.681 19.7834 14.3101 19.7834C11.9394 19.7834 10.6516 18.1921 10.6516 15.1491V10.918C9.83446 11.0686 9.02881 11.2759 8.24048 11.5383V15.1707C8.24048 16.78 8.87996 18.3233 10.0182 19.4611C11.1565 20.599 12.7004 21.2382 14.3101 21.2382C15.92 21.2382 17.4638 20.599 18.6021 19.4611Z" fill="#7000FF"/>
  <path d="M14.3099 3.33594C8.06417 3.33594 3.00098 8.39728 3.00098 14.6408C3.00098 20.8842 8.06417 25.9456 14.3099 25.9456C20.5557 25.9456 25.6189 20.8842 25.6189 14.6408C25.6189 8.39728 20.5557 3.33594 14.3099 3.33594ZM4.4146 14.6408C4.4146 9.17772 8.84489 4.74904 14.3099 4.74904C19.775 4.74904 24.2053 9.17772 24.2053 14.6408C24.2053 20.1038 19.775 24.5325 14.3099 24.5325C8.84489 24.5325 4.4146 20.1038 4.4146 14.6408Z" fill="#7000FF"/>
</svg>