<svg xmlns="http://www.w3.org/2000/svg" width="25" height="25" viewBox="0 0 25 25" fill="none">
  <path d="M16.0285 12.8001C16.0285 13.1149 15.8581 13.2283 15.6434 13.4263L10.457 18.2209C10.2883 18.3883 10.1323 18.5858 9.79412 18.5858C9.55635 18.5858 9.17132 18.4017 9.17132 17.8994C9.17132 17.588 9.42349 17.4416 9.59989 17.2666L14.4146 12.8001L9.59321 8.3269C9.42452 8.15188 9.16797 8.02222 9.16797 7.65726C9.16797 7.36931 9.39229 7.0144 9.85103 7.0144C10.1041 7.0144 10.3352 7.25212 10.5039 7.41954L15.6434 12.1573C15.8581 12.3627 16.0285 12.4854 16.0285 12.8001Z" fill="#A6A9B2" fill-opacity="0.6"/>
</svg>