<svg xmlns="http://www.w3.org/2000/svg" width="25" height="25" viewBox="0 0 25 25" fill="none">
  <path fill-rule="evenodd" clip-rule="evenodd" d="M16.1357 11.0593C16.1357 13.8207 13.8971 16.0593 11.1357 16.0593C8.37432 16.0593 6.13574 13.8207 6.13574 11.0593C6.13574 8.29791 8.37432 6.05933 11.1357 6.05933C13.8971 6.05933 16.1357 8.29791 16.1357 11.0593ZM14.9755 16.3044C13.8997 17.0934 12.5721 17.5593 11.1357 17.5593C7.54589 17.5593 4.63574 14.6492 4.63574 11.0593C4.63574 7.46948 7.54589 4.55933 11.1357 4.55933C14.7256 4.55933 17.6357 7.46948 17.6357 11.0593C17.6357 12.4957 17.1698 13.8233 16.3808 14.8991L20.3447 18.8629C20.7327 19.251 20.7327 19.8802 20.3447 20.2683C19.9566 20.6563 19.3274 20.6563 18.9393 20.2683L14.9755 16.3044Z" fill="#595B66"/>
</svg>