<svg xmlns="http://www.w3.org/2000/svg" width="33" height="33" viewBox="0 0 33 33" fill="none">
  <g clip-path="url(#clip0_1_7191)">
    <path d="M16.1045 0.638672C29.4378 0.638672 32.1045 3.30534 32.1045 16.6387C32.1045 29.972 29.4378 32.6387 16.1045 32.6387C2.77116 32.6387 0.104492 29.972 0.104492 16.6387C0.104492 3.30534 2.77116 0.638672 16.1045 0.638672Z" fill="url(#paint0_linear_1_7191)"/>
    <path d="M7.96572 16.5039C12.6301 14.4718 15.7403 13.132 17.2966 12.4847C21.74 10.6366 22.6632 10.3156 23.2651 10.3048C23.3974 10.3026 23.6934 10.3354 23.8851 10.491C24.0469 10.6223 24.0915 10.7997 24.1128 10.9243C24.1341 11.0488 24.1606 11.3324 24.1395 11.5541C23.8987 14.0841 22.8568 20.2237 22.3268 23.0573C22.1025 24.2563 21.6608 24.6583 21.2334 24.6977C20.3042 24.7832 19.5987 24.0836 18.6987 23.4937C17.2905 22.5706 16.495 21.996 15.128 21.0952C13.5483 20.0542 14.5724 19.482 15.4726 18.547C15.7083 18.3023 19.8022 14.5786 19.8814 14.2408C19.8912 14.1986 19.9005 14.0411 19.8069 13.958C19.7134 13.8748 19.5752 13.9033 19.4756 13.9258C19.3344 13.9579 17.0848 15.4448 12.7267 18.3866C12.0882 18.8251 11.5098 19.0388 10.9916 19.0276C10.4203 19.0152 9.32143 18.7045 8.50448 18.439C7.50245 18.1132 6.7061 17.9411 6.77545 17.3879C6.81157 17.0998 7.20833 16.8051 7.96572 16.5039Z" fill="white"/>
  </g>
  <defs>
    <linearGradient id="paint0_linear_1_7191" x1="16.1045" y1="0.638672" x2="16.1045" y2="32.4012" gradientUnits="userSpaceOnUse">
      <stop stop-color="#2AABEE"/>
      <stop offset="1" stop-color="#229ED9"/>
    </linearGradient>
    <clipPath id="clip0_1_7191">
      <rect width="32" height="32" fill="white" transform="translate(0.104492 0.638672)"/>
    </clipPath>
  </defs>
</svg>