<svg xmlns="http://www.w3.org/2000/svg" width="37" height="36" viewBox="0 0 37 36" fill="none">
  <g clip-path="url(#clip0_180_11)">
    <mask id="mask0_180_11" style="mask-type:luminance" maskUnits="userSpaceOnUse" x="0" y="0" width="37" height="36">
      <path d="M36.2 0H0.199951V36H36.2V0Z" fill="white"/>
    </mask>
    <g mask="url(#mask0_180_11)">
      <mask id="mask1_180_11" style="mask-type:alpha" maskUnits="userSpaceOnUse" x="0" y="0" width="37" height="36">
        <path d="M18.2 0C33.2 0 36.2 3 36.2 18C36.2 33 33.2 36 18.2 36C3.19995 36 0.199951 33 0.199951 18C0.199951 3 3.19995 0 18.2 0Z" fill="white"/>
      </mask>
      <g mask="url(#mask1_180_11)">
        <path d="M36.2 0H0.199951V36H36.2V0Z" fill="#FFFF00"/>
        <path d="M1.94235 8.42296C1.59145 9.57087 1.83454 10.9497 2.3207 13.7073L3.29507 19.2342C3.65555 21.2789 3.88238 22.5655 4.26999 23.4849L0.199951 24.2027V36H4.69995L30.0228 31.532C33.3937 30.9375 35.6445 27.7225 35.0501 24.351C34.7822 22.831 33.9815 21.5386 32.8741 20.6322C33.1648 20.2115 33.3912 19.7461 33.5424 19.251C33.8933 18.1031 33.6502 16.7242 33.1642 13.9666L32.1898 8.43977C31.7036 5.68212 31.4605 4.30329 30.7383 3.34464C30.1028 2.50138 29.217 1.88094 28.2074 1.57223C27.0597 1.22128 25.6811 1.46441 22.9239 1.95065L8.80875 4.43993C6.05155 4.92618 4.67296 5.16931 3.71446 5.8917C2.87134 6.52714 2.251 7.41323 1.94235 8.42296Z" fill="#7000FF"/>
        <path d="M18.1996 6.96094C17.7839 6.96094 17.3753 6.97855 16.9701 7.01378L16.9631 12.7266H19.4291V7.01378C19.0239 6.96094 18.6153 6.96094 18.1996 6.96094Z" fill="white"/>
        <path d="M23.0721 19.333C24.3643 18.0408 25.0903 16.2881 25.0903 14.4606V10.3354C24.1967 10.0369 23.2832 9.80147 22.3566 9.63086V14.4359C22.3566 17.8918 20.8911 19.699 18.1997 19.699C15.5083 19.699 14.0463 17.8918 14.0463 14.4359V9.63086C13.1186 9.80191 12.204 10.0373 11.3091 10.3354V14.4606C11.3091 16.2881 12.035 18.0408 13.3273 19.333C14.6195 20.6252 16.3722 21.3752 18.1997 21.3752C20.0272 21.3752 21.7799 20.6252 23.0721 19.333Z" fill="white"/>
        <path d="M20.6184 28.8033H21.7025V26.9743L23.3982 28.8033H24.677L22.9257 26.8912L24.538 25.0622H23.2592L21.7025 26.8081V23.8984H20.6184V28.8033Z" fill="white"/>
        <path d="M7.52522 25.6713C7.8032 25.2556 8.30357 24.9785 8.99853 24.9785C10.1661 24.9785 10.7221 25.7267 10.7221 26.6412V28.8304H9.6379V26.8075C9.6379 26.3641 9.38771 25.9761 8.85954 25.9761C8.33137 25.9761 8.08119 26.3364 8.08119 26.7798V28.8304H6.99705V26.7798C6.99705 26.3364 6.71906 25.9761 6.19089 25.9761C5.66272 25.9761 5.44034 26.3641 5.44034 26.8075V28.8304H4.3562V26.6412C4.3562 25.7267 4.93997 24.9785 6.1075 24.9785C6.69127 24.9785 7.27503 25.2556 7.52522 25.6713Z" fill="white"/>
        <path fill-rule="evenodd" clip-rule="evenodd" d="M15.698 27.5003V25.0616H14.6138V25.6436C14.3914 25.2833 13.9745 24.9785 13.2517 24.9785C12.0008 24.9785 11.3614 25.9484 11.3614 26.9183C11.3336 27.9159 12.0564 28.8858 13.1961 28.8858C13.8077 28.8858 14.3636 28.6087 14.6138 28.1376C14.725 28.4425 15.003 28.775 15.559 28.775H16.1705V27.8605H16.0037C15.7813 27.9159 15.698 27.8328 15.698 27.5003ZM13.4741 27.9714C12.8625 27.9714 12.3899 27.5557 12.3899 26.946C12.3899 26.3641 12.8625 25.9484 13.4741 25.9484C14.1134 25.9484 14.5582 26.3641 14.5582 26.946C14.586 27.528 14.1134 27.9714 13.4741 27.9714Z" fill="white"/>
        <path d="M17.0881 28.8027H18.1722V27.14C18.1722 26.5026 18.6448 26.087 19.2286 26.087H19.9513V24.9785H19.4232C18.756 24.9785 18.2834 25.5327 18.1722 25.8653V25.0616H17.0881V28.8027Z" fill="white"/>
        <path fill-rule="evenodd" clip-rule="evenodd" d="M25.8721 27.2231C25.8721 27.6388 26.0945 28.0545 26.7895 28.0545C27.4288 28.0545 27.5122 27.6665 27.5122 27.6665H28.7076C28.7076 27.6665 28.5964 28.8858 26.7895 28.8858C25.5386 28.8858 24.7324 28.193 24.7324 26.9183C24.7324 25.6713 25.5108 24.9785 26.7617 24.9785C27.9848 24.9785 28.791 25.6713 28.791 26.9183C28.791 27.0569 28.7632 27.1954 28.7632 27.1954H25.8721V27.2231ZM25.8999 26.5581H27.6512C27.6512 26.2532 27.4844 25.8099 26.7895 25.8099C26.0945 25.8376 25.8999 26.2532 25.8999 26.5581Z" fill="white"/>
        <path d="M31.3761 27.8607C31.0147 27.8607 30.8757 27.6944 30.8757 27.1679V25.8655H32.0433V24.9787H30.8757V24.2305H30.292L29.2356 25.2281V25.8378H29.7916V27.3065C29.7916 28.3595 30.3198 28.8029 31.3761 28.8029H32.0433V27.8607H31.3761Z" fill="white"/>
      </g>
    </g>
  </g>
  <defs>
    <clipPath id="clip0_180_11">
      <rect width="36" height="36" fill="white" transform="translate(0.199951)"/>
    </clipPath>
  </defs>
</svg>